<?xml version="1.0" encoding="UTF-8"?>
<!DOCTYPE svg PUBLIC "-//W3C//DTD SVG 1.1//EN" "http://www.w3.org/Graphics/SVG/1.1/DTD/svg11.dtd">
<svg version="1.1" xmlns="http://www.w3.org/2000/svg" xmlns:xlink="http://www.w3.org/1999/xlink" x="0" y="0" width="1024" height="1024" viewBox="0, 0, 1024, 1024">
  <g id="Layer_1">
    <path d="M7.422,613.311 C24.582,603.45 50.233,606.744 61.648,586.608 C68.509,574.721 71.429,561.35 74.682,548.103 C82.806,494.076 103.103,441.413 136.31,398.495 C188.754,342.543 253.124,308.215 317.665,270.48 C317.912,272.194 318.158,273.908 318.404,275.622 C307.764,287.804 302.897,303.358 298.222,318.628 C280.866,424.01 323.867,563.831 435.875,595.276 C469.544,599.851 502.546,585.785 527.732,564.875 C537.035,553.794 522.515,538.738 510.963,547.439 C489.378,565.086 460.438,575.501 432.328,569.782 C339.287,534.286 302.805,411.323 323.202,318.651 C328.362,304.037 336.892,291.004 347.37,280.622 C374.296,261.703 409.904,265.215 439.359,276.607 C442.692,276.561 446.581,276.702 449.216,274.219 C453.659,269.039 453.466,260.82 449.288,255.55 C424.917,245.154 397.713,242.458 371.85,242.392 C383.311,231.938 402.857,228.035 418.115,222.222 C516.377,178.97 636.557,233.342 671.007,332.86 C678.195,347.92 684.098,363.597 688.827,379.507 C696.027,399.563 701.276,420.308 707.542,440.663 C716.464,468.451 726.03,495.916 736.616,523.042 C761.281,582.53 789.695,643.064 838.441,686.392 C881.647,723.442 961.843,728.243 996.474,678.094 C999.064,675.83 1001.725,671.82 1005.865,674.141 C1017.594,680.002 1016.617,697.698 1016.85,709.305 C1014.727,720.578 1010.981,731.276 1004.341,740.613 C995.605,750.61 985.319,758.612 973.527,764.682 C853.44,815.82 729.225,736.932 654.409,648.56 C646.731,641.793 636.407,637.557 625.997,638.62 C605.975,644.74 588.095,656.907 576.872,674.176 C570.332,685.941 566.784,699.2 567.13,712.845 C566.85,723.615 566.981,734.394 566.575,745.161 C566.409,765.434 561.892,787.393 546.064,801.032 C503.29,826.729 416.344,825.958 416.612,759.571 C415.716,749.991 415.808,740.339 414.711,730.768 C411.768,718.072 408.079,704.736 400.649,694.664 C385.453,674.376 360.778,665.226 335.599,665.601 C316.49,665.505 295.219,668.903 283.349,685.089 C278.343,695.077 273.594,705.343 271.901,716.574 C265.57,742.898 268.154,774.235 249.58,795.314 C204.867,819.779 141.116,826.936 96.588,797.551 C62.592,745.859 72.631,675.93 66.212,616.452 C50.638,625.913 3.138,647.036 7.422,613.311 z M491.468,419.042 C487.887,431.176 498.384,443.768 510.818,436.576 C520.164,421.653 513.078,400.269 524.48,385.708 C555.149,379.017 535.313,430.328 554.127,441.186 C584.795,437.851 564.023,391.247 556.284,373.248 C526.356,333.527 486.38,384.402 491.468,419.042 z" fill="#75666B"/>
  </g>
</svg>
