<?xml version="1.0" encoding="UTF-8"?>
<svg width="2048px" height="1220px" viewBox="0 0 2048 1220" version="1.1" xmlns="http://www.w3.org/2000/svg" xmlns:xlink="http://www.w3.org/1999/xlink">
    <!-- Generator: Sketch 41.2 (35397) - http://www.bohemiancoding.com/sketch -->
    <title>learners-guild-logo-color-on-dark</title>
    <desc>Created with Sketch.</desc>
    <defs></defs>
    <g id="Logo" stroke="none" stroke-width="1" fill="none" fill-rule="evenodd">
        <g id="learners-guild-logo-color-on-dark">
            <g id="Vertical-logo-Color-on-Dark" transform="translate(224.000000, 137.000000)">
                <g id="Vertical-logo-Color">
                    <path d="M0.5632561,200 L28.4700356,200 L28.4700356,188.018007 L23.2471154,188.018007 L22.530244,195.391541 L11.9819934,195.391541 L11.9819934,168.560069 L16.7952728,168.560069 L16.7952728,164.15643 L0.5632561,164.15643 L0.5632561,168.560069 L2.5090499,168.560069 C3.2771264,168.560069 3.9939978,169.48176 3.9939978,170.147427 L3.9939978,194.162619 C3.9939978,194.828285 3.2771264,195.749977 2.5090499,195.749977 L0.5632561,195.749977 L0.5632561,200 Z M56.34761,187.966802 C56.34761,187.710776 56.4500202,186.840289 56.4500202,185.918598 C56.4500202,176.80409 52.251202,172.707682 44.2120013,172.707682 C36.1215955,172.707682 30.74506,178.033012 30.74506,186.686674 C30.74506,195.135515 35.4047241,200.358436 44.7240523,200.358436 C50.3566133,200.358436 53.275304,199.078308 55.4771233,197.746976 L55.4771233,192.831286 L51.2271,192.831286 C49.8445623,194.572259 48.666845,195.749977 45.3385135,195.749977 C41.0372851,195.749977 38.6818505,193.292132 38.3746199,187.966802 L56.34761,187.966802 Z M44.2120013,177.162525 C47.2843073,177.162525 48.7180501,179.005909 48.9740756,183.716778 L38.4770301,183.716778 C39.0402862,179.108319 41.0884902,177.162525 44.2120013,177.162525 Z M66.3033994,200.307231 C69.5805258,200.307231 72.0895757,199.436744 74.0865746,196.978899 C74.7522409,199.129513 76.339599,200.358436 79.4631101,200.358436 C81.4089039,200.358436 82.9450569,199.948795 83.9691589,199.334334 L83.9691589,195.749977 L82.5354161,195.749977 C81.9209549,195.749977 81.2552886,195.08431 81.2552886,194.469849 L81.2552886,181.105318 C81.2552886,174.960706 77.5685214,172.707682 70.6046278,172.707682 C65.3817076,172.707682 62.002171,173.629373 59.4931211,174.755886 L59.4931211,180.234831 L62.9238628,180.234831 C64.2551954,179.057114 65.8937586,177.828192 69.1196799,177.828192 C72.2943961,177.828192 73.779344,179.108319 73.779344,181.82219 L73.779344,184.63847 C72.0895757,184.228829 70.5534227,184.024009 68.3003983,184.024009 C62.1045812,184.024009 57.7009426,186.584264 57.7009426,192.216825 C57.7009426,197.542155 61.2852996,200.307231 66.3033994,200.307231 Z M69.0684748,195.903592 C66.5594249,195.903592 64.9720668,194.623465 64.9720668,191.909594 C64.9720668,189.195724 66.8154504,187.966802 69.8365513,187.966802 C71.2702941,187.966802 72.6016267,188.069212 73.779344,188.274032 L73.779344,194.009003 C72.4992165,195.186721 70.9630635,195.903592 69.0684748,195.903592 Z M84.9128507,200 L99.1990736,200 L99.1990736,195.749977 L95.4611013,195.749977 L95.4611013,180.286036 C96.9460492,179.466755 99.3014838,178.647473 103.193071,178.647473 L104.473199,178.647473 L104.473199,173.117323 C103.961148,172.963707 103.397892,172.861297 102.834636,172.861297 C99.3014838,172.861297 97.2020747,174.807091 95.4098962,177.00891 C95.307486,173.885399 94.7442299,173.117323 93.8737432,173.117323 L84.7080303,173.117323 L84.7080303,177.623371 L86.7050292,177.623371 C87.3194904,177.623371 87.9851567,178.442653 87.9851567,179.005909 L87.9851567,194.469849 C87.9851567,195.033105 87.3194904,195.749977 86.7050292,195.749977 L84.9128507,195.749977 L84.9128507,200 Z M105.570506,200 L119.242268,200 L119.242268,195.749977 L116.118757,195.749977 L116.118757,179.569165 C117.85973,179.005909 119.856729,178.545063 122.007343,178.545063 C124.516393,178.545063 125.540495,179.31314 125.540495,181.975805 L125.540495,195.749977 L122.468189,195.749977 L122.468189,200 L135.73031,200 L135.73031,195.749977 L134.296567,195.749977 C133.682106,195.749977 133.01644,195.08431 133.01644,194.469849 L133.01644,179.41555 C133.01644,174.19263 129.790518,172.707682 126.052546,172.707682 C122.007343,172.707682 118.576601,174.243835 116.067552,176.599269 C115.913936,173.834194 115.401885,173.117323 114.531399,173.117323 L105.365686,173.117323 L105.365686,177.623371 L107.362685,177.623371 C107.977146,177.623371 108.642812,178.442653 108.642812,179.005909 L108.642812,194.469849 C108.642812,195.033105 107.977146,195.749977 107.362685,195.749977 L105.570506,195.749977 L105.570506,200 Z M161.964201,187.966802 C161.964201,187.710776 162.066611,186.840289 162.066611,185.918598 C162.066611,176.80409 157.867793,172.707682 149.828592,172.707682 C141.738186,172.707682 136.361651,178.033012 136.361651,186.686674 C136.361651,195.135515 141.021315,200.358436 150.340643,200.358436 C155.973204,200.358436 158.891895,199.078308 161.093714,197.746976 L161.093714,192.831286 L156.843691,192.831286 C155.461153,194.572259 154.283436,195.749977 150.955104,195.749977 C146.653876,195.749977 144.298441,193.292132 143.99121,187.966802 L161.964201,187.966802 Z M149.828592,177.162525 C152.900898,177.162525 154.334641,179.005909 154.590666,183.716778 L144.093621,183.716778 C144.656877,179.108319 146.705081,177.162525 149.828592,177.162525 Z M163.163918,200 L177.450141,200 L177.450141,195.749977 L173.712168,195.749977 L173.712168,180.286036 C175.197116,179.466755 177.552551,178.647473 181.444139,178.647473 L182.724266,178.647473 L182.724266,173.117323 C182.212215,172.963707 181.648959,172.861297 181.085703,172.861297 C177.552551,172.861297 175.453142,174.807091 173.660963,177.00891 C173.558553,173.885399 172.995297,173.117323 172.12481,173.117323 L162.959097,173.117323 L162.959097,177.623371 L164.956096,177.623371 C165.570558,177.623371 166.236224,178.442653 166.236224,179.005909 L166.236224,194.469849 C166.236224,195.033105 165.570558,195.749977 164.956096,195.749977 L163.163918,195.749977 L163.163918,200 Z M192.731261,200.307231 C200.872871,200.307231 204.406023,196.876489 204.406023,191.602364 C204.406023,186.174623 201.743358,184.382444 195.24031,183.409548 C190.683057,182.743881 189.71016,181.770984 189.71016,180.132421 C189.71016,178.442653 191.246313,177.316141 194.011388,177.316141 C196.827669,177.316141 198.466232,178.340243 199.336718,179.927601 L203.484332,179.927601 L203.484332,173.987809 C201.333717,173.270938 198.466232,172.810092 194.267414,172.810092 C187.40593,172.810092 183.309522,175.882398 183.309522,181.207728 C183.309522,186.481854 186.023392,188.478852 191.809569,189.298134 C196.110797,189.912595 197.288514,190.731877 197.288514,192.728876 C197.288514,194.67467 195.547541,195.903592 192.680055,195.903592 C190.324621,195.903592 187.917981,194.725875 187.30352,192.831286 L183.002292,192.831286 L183.002292,198.873488 C185.204111,199.590359 187.866776,200.307231 192.731261,200.307231 Z M231.332701,200.409641 C234.712237,200.409641 236.709236,199.846385 238.706235,198.873488 C239.730337,198.873488 240.139978,200 240.139978,200 L244.338796,200 L244.338796,188.939698 C244.338796,188.274032 245.055668,187.35234 245.823744,187.35234 L247.052667,187.35234 L247.052667,182.948702 L232.971264,182.948702 L232.971264,187.35234 L236.504416,187.35234 L236.504416,194.725875 C235.224288,195.135515 233.995366,195.340336 231.691137,195.340336 C226.00737,195.340336 222.935064,190.731877 222.935064,181.873395 C222.935064,172.810092 226.980267,168.969709 232.356803,168.969709 C234.763443,168.969709 236.606826,169.37935 237.784543,169.840196 L238.603825,175.421552 L243.929155,175.421552 L243.929155,164.15643 L238.091774,164.15643 C237.221287,164.002815 235.224288,163.746789 232.356803,163.746789 C221.501322,163.746789 214.537428,170.454657 214.537428,182.180625 C214.537428,193.906593 221.040476,200.409641 231.332701,200.409641 Z M257.981353,200.358436 C262.282581,200.358436 265.252477,198.975898 267.710322,196.671669 C267.915142,199.334334 268.375988,200 269.246475,200 L278.156162,200 L278.156162,195.749977 L276.415189,195.749977 C275.800728,195.749977 275.135061,194.930695 275.135061,194.367439 L275.135061,173.117323 L264.125965,173.117323 L264.125965,177.623371 L267.659117,177.623371 L267.659117,193.804183 C266.020554,194.469849 263.97235,195.08431 262.026556,195.08431 C259.671121,195.08431 258.237378,194.265029 258.237378,191.346338 L258.237378,173.117323 L247.740333,173.117323 L247.740333,177.623371 L249.481306,177.623371 C250.044562,177.623371 250.761434,178.289038 250.761434,178.903499 L250.761434,193.701773 C250.761434,198.924693 254.243381,200.358436 257.981353,200.358436 Z M279.099854,200 L293.027641,200 L293.027641,195.749977 L291.081847,195.749977 C290.467386,195.749977 289.80172,195.08431 289.80172,194.469849 L289.80172,175.984808 C289.80172,173.936604 289.392079,173.117323 288.572798,173.117323 L278.895034,173.117323 L278.895034,177.623371 L281.045648,177.623371 C281.660109,177.623371 282.27457,178.442653 282.27457,179.005909 L282.27457,194.469849 C282.27457,195.033105 281.660109,195.749977 281.045648,195.749977 L279.099854,195.749977 L279.099854,200 Z M285.961337,171.017913 C288.214362,171.017913 290.00654,169.27694 290.00654,167.075121 C290.00654,164.873301 288.214362,163.081123 285.961337,163.081123 C283.708313,163.081123 281.916135,164.873301 281.916135,167.075121 C281.916135,169.27694 283.708313,171.017913 285.961337,171.017913 Z M293.920128,200 L308.052736,200 L308.052736,195.749977 L305.953326,195.749977 C305.39007,195.749977 304.673199,195.08431 304.673199,194.469849 L304.673199,165.897403 C304.673199,164.770891 304.263558,164.15643 303.393071,164.15643 L293.766513,164.15643 L293.766513,168.560069 L295.917127,168.560069 C296.531588,168.560069 297.197254,169.37935 297.197254,169.942606 L297.197254,194.469849 C297.197254,195.033105 296.531588,195.749977 295.917127,195.749977 L293.920128,195.749977 L293.920128,200 Z M320.415165,200.409641 C324.153137,200.409641 326.867007,198.975898 328.607981,196.978899 C328.761596,198.873488 329.222442,200 329.990518,200 L339.105026,200 L339.105026,195.749977 L337.261643,195.749977 C336.647181,195.749977 335.981515,194.930695 335.981515,194.367439 L335.981515,165.897403 C335.981515,164.822096 335.571874,164.15643 334.701388,164.15643 L325.023624,164.15643 L325.023624,168.560069 L328.50557,168.560069 L328.50557,176.189628 C326.764597,174.090219 324.562778,172.707682 320.824805,172.707682 C315.601885,172.707682 309.252453,176.752885 309.252453,186.891494 C309.252453,197.183719 315.038629,200.409641 320.415165,200.409641 Z M322.924215,195.903592 C319.851909,195.903592 316.830808,194.060208 316.830808,186.686674 C316.830808,179.876396 320.005524,177.828192 323.538676,177.828192 C325.330854,177.828192 327.174238,178.391448 328.50557,179.005909 L328.50557,193.752978 C327.020623,195.033105 325.279649,195.903592 322.924215,195.903592 Z" id="Learners-Guild" fill="#FFFFFE"></path>
                    <g id="Group-33" transform="translate(99.000000, 0.000000)">
                        <g id="Group-2">
                            <path d="M81.7129,140.8125 L90.9429,118.5405 L113.6499,127.3185 C113.6499,127.3185 107.6349,113.0035 103.2109,102.4165 C97.8579,100.2695 93.5239,98.5345 92.6409,98.1785 C90.0139,97.1205 86.5509,95.6835 82.5529,97.2065 C78.3609,98.8025 77.4429,101.6645 75.9879,104.8855 C75.5239,105.9205 73.4709,110.6015 71.0039,116.2575 C75.6169,126.8295 81.7129,140.8125 81.7129,140.8125" id="Fill-1" fill="#009ACC"></path>
                            <path d="M141.1602,80.5713 C141.1602,80.5713 127.0802,74.7083 116.5272,70.2723 C111.0452,72.6423 106.5722,74.5763 105.6702,74.9613 C103.0782,76.0803 99.6132,77.5273 97.8812,81.4373 C96.0602,85.5383 97.4472,88.2053 98.7052,91.5063 C99.1052,92.5363 100.9512,96.9873 103.2112,102.4173 C113.8122,106.6633 128.4412,112.5213 128.4412,112.5213 L118.9312,90.5093 L141.1602,80.5713 Z" id="Fill-3" fill="#8FC33F"></path>
                            <path d="M113.6504,127.3184 L128.4414,112.5214 C128.4414,112.5214 113.8124,106.6634 103.2114,102.4174 C107.6344,113.0044 113.6504,127.3184 113.6504,127.3184" id="Fill-5" fill="#424B8A"></path>
                            <path d="M98.8086,48.7949 C97.7226,51.4119 96.2516,54.8589 97.7346,58.8729 C99.2886,63.0829 102.1406,64.0289 105.3496,65.5149 C106.3656,65.9899 110.9546,67.9309 116.5276,70.2729 C126.9646,65.7559 141.0706,59.6539 141.0706,59.6539 L119.1526,50.7039 L128.1636,28.0859 C128.1636,28.0859 113.7286,34.1539 103.1136,38.5799 C100.9216,43.7649 99.1696,47.9289 98.8086,48.7949" id="Fill-7" fill="#DC3C59"></path>
                            <path d="M141.1602,80.5713 L141.0702,59.6543 C141.0702,59.6543 126.9652,65.7563 116.5272,70.2723 C127.0802,74.7083 141.1602,80.5713 141.1602,80.5713" id="Fill-9" fill="#208357"></path>
                            <path d="M75.7559,36.0303 C76.8709,38.6363 78.3089,42.0983 82.2169,43.8443 C86.3089,45.6743 88.9829,44.2953 92.2849,43.0413 C93.3109,42.6503 97.7189,40.8273 103.1129,38.5803 C107.5259,28.0993 113.7149,13.4523 113.7149,13.4523 L91.3419,22.8123 L81.4609,0.5613 C81.4609,0.5613 75.4809,14.5033 70.9979,24.9433 C73.4019,30.5333 75.3709,35.1223 75.7559,36.0303" id="Fill-11" fill="#EAB629"></path>
                            <path d="M128.1641,28.0859 L113.7151,13.4519 C113.7151,13.4519 107.5251,28.0999 103.1131,38.5799 C113.7281,34.1539 128.1641,28.0859 128.1641,28.0859" id="Fill-13" fill="#852044"></path>
                            <path d="M60.293,140.8125 C60.293,140.8125 66.385,126.8295 71.004,116.2575 C68.531,110.6015 66.482,105.9205 66.014,104.8855 C64.563,101.6645 63.645,98.8025 59.455,97.2065 C55.453,95.6835 51.992,97.1205 49.361,98.1785 C48.479,98.5345 44.15,100.2695 38.791,102.4165 C34.373,113.0035 28.352,127.3185 28.352,127.3185 L51.061,118.5405 L60.293,140.8125 Z" id="Fill-15" fill="#EAB629"></path>
                            <path d="M43.2969,91.5059 C44.5609,88.2049 45.9419,85.5379 44.1249,81.4379 C42.3889,77.5269 38.9279,76.0799 36.3279,74.9609 C35.4299,74.5759 30.9569,72.6429 25.4809,70.2729 C14.9279,74.7079 0.8419,80.5709 0.8419,80.5709 L23.0699,90.5089 L13.5669,112.5219 C13.5669,112.5219 28.1929,106.6629 38.7909,102.4169 C41.0569,96.9869 42.9019,92.5359 43.2969,91.5059" id="Fill-17" fill="#DC3C59"></path>
                            <path d="M13.5664,112.5215 L28.3514,127.3185 C28.3514,127.3185 34.3734,113.0035 38.7914,102.4175 C28.1934,106.6635 13.5664,112.5215 13.5664,112.5215" id="Fill-19" fill="#852044"></path>
                            <path d="M36.6582,65.5146 C39.8672,64.0296 42.7152,63.0826 44.2732,58.8726 C45.7542,54.8596 44.2792,51.4116 43.1972,48.7946 C42.8322,47.9286 41.0802,43.7646 38.8942,38.5796 C28.2772,34.1546 13.8382,28.0856 13.8382,28.0856 L22.8492,50.7036 L0.9312,59.6546 C0.9312,59.6546 15.0372,65.7556 25.4802,70.2726 C31.0512,67.9306 35.6372,65.9906 36.6582,65.5146" id="Fill-21" fill="#8FC33F"></path>
                            <path d="M0.9316,59.6543 L0.8416,80.5713 C0.8416,80.5713 14.9276,74.7083 25.4806,70.2723 C15.0366,65.7563 0.9316,59.6543 0.9316,59.6543" id="Fill-23" fill="#208357"></path>
                            <path d="M49.7168,43.041 C53.0238,44.295 55.6938,45.674 59.7908,43.845 C63.6988,42.099 65.1308,38.637 66.2458,36.03 C66.6348,35.122 68.6058,30.534 70.9978,24.943 C66.5218,14.514 60.5448,0.594 60.5448,0.594 L50.6638,22.812 L28.2868,13.452 C28.2868,13.452 34.4728,28.1 38.8948,38.58 C44.2888,40.827 48.6958,42.65 49.7168,43.041" id="Fill-25" fill="#009ACC"></path>
                            <path d="M81.4609,0.5615 L60.5449,0.5935 C60.5449,0.5935 66.5219,14.5135 70.9979,24.9435 C75.4809,14.5025 81.4609,0.5615 81.4609,0.5615" id="Fill-27" fill="#D66A2D"></path>
                            <path d="M28.2871,13.4521 L13.8381,28.0861 C13.8381,28.0861 28.2771,34.1541 38.8941,38.5801 C34.4731,28.0991 28.2871,13.4521 28.2871,13.4521" id="Fill-29" fill="#424B8A"></path>
                            <path d="M71.0039,116.2578 C66.3849,126.8288 60.2929,140.8128 60.2929,140.8128 L81.7129,140.8128 C81.7129,140.8128 75.6169,126.8288 71.0039,116.2578" id="Fill-31" fill="#D66A2D"></path>
                        </g>
                    </g>
                </g>
            </g>
        </g>
    </g>
</svg>