<?xml version="1.0" encoding="UTF-8"?>
<svg width="512px" height="512px" viewBox="0 0 512 512" version="1.1" xmlns="http://www.w3.org/2000/svg" xmlns:xlink="http://www.w3.org/1999/xlink">
    <!-- Generator: Sketch 41.2 (35397) - http://www.bohemiancoding.com/sketch -->
    <title>learners-guild-icon-light</title>
    <desc>Created with Sketch.</desc>
    <defs></defs>
    <g id="Icon" stroke="none" stroke-width="1" fill="none" fill-rule="evenodd">
        <g id="learners-guild-icon-light">
            <g id="Mark-B&amp;W-Light">
                <g id="Group-2">
                    <path d="M295.284492,511.128426 L328.825189,430.206591 L411.334694,462.096206 C411.334694,462.096206 389.469006,410.088279 373.413813,371.627215 C353.941372,363.825086 338.205593,357.516683 334.999721,356.222591 C325.450217,352.380242 312.870987,347.159251 298.344749,352.692609 C283.113923,358.49371 279.778877,368.888719 274.494473,380.594261 C272.803464,384.356756 265.353629,401.363141 256.377189,421.918297 C273.151061,460.320646 295.284492,511.128426 295.284492,511.128426" id="Fill-2" fill="#C2C3C1"></path>
                    <path d="M511.275215,292.255706 C511.275215,292.255706 460.119839,270.948991 421.771508,254.832734 C401.857527,263.442789 385.609747,270.467523 382.356903,271.867303 C372.898994,275.937468 360.333857,281.188991 354.027802,295.402862 C347.421123,310.297835 352.454224,319.985908 357.041086,331.98033 C358.476095,335.728734 365.179068,351.899009 373.413343,371.62745 C411.916683,387.053211 465.058994,408.338789 465.058994,408.338789 L430.522481,328.361101 L511.275215,292.255706 Z" id="Fill-4" fill="#C2C3C1"></path>
                    <path d="M411.334928,462.09644 L465.059699,408.338789 C465.059699,408.338789 411.917387,387.053211 373.414048,371.62745 C389.466892,410.086165 411.334928,462.09644 411.334928,462.09644" id="Fill-6" fill="#FFFFFF"></path>
                    <path d="M357.408176,176.801585 C353.462488,186.308815 348.114672,198.834026 353.495369,213.416631 C359.141461,228.708521 369.498892,232.149255 381.150415,237.548741 C384.86124,239.270283 401.531772,246.330246 421.769864,254.834613 C459.711883,238.424778 510.958855,216.253769 510.958855,216.253769 L431.326415,183.73942 L464.06858,101.565769 C464.06858,101.565769 411.60502,123.609952 373.031222,139.686283 C365.088176,158.522246 358.71636,173.654429 357.408176,176.801585" id="Fill-8" fill="#C2C3C1"></path>
                    <path d="M511.275215,292.255706 L510.95815,216.254239 C510.95815,216.254239 459.711178,238.425248 421.771508,254.832734 C460.119839,270.948991 511.275215,292.255706 511.275215,292.255706" id="Fill-10" fill="#FFFFFF"></path>
                    <path d="M273.656015,130.425424 C277.702694,139.892727 282.921336,152.471956 297.11407,158.810892 C311.99495,165.457497 321.697116,160.45258 333.700932,155.898598 C337.430547,154.480029 353.441116,147.852213 373.033336,139.686048 C389.090877,101.610158 411.569556,48.3903413 411.569556,48.3903413 L330.269593,82.4054606 L294.375574,1.55878165 C294.375574,1.55878165 272.641409,52.206855 256.372492,90.1465248 C265.088235,110.452727 272.242143,127.123259 273.656015,130.425424" id="Fill-12" fill="#C2C3C1"></path>
                    <path d="M464.068815,101.566473 L411.567677,48.3912807 C411.567677,48.3912807 389.091347,101.611097 373.031457,139.686987 C411.605255,123.610657 464.068815,101.566473 464.068815,101.566473" id="Fill-14" fill="#FFFFFF"></path>
                    <path d="M217.467772,511.128426 C217.467772,511.128426 239.601204,460.320646 256.375075,421.918297 C247.398635,401.363141 239.953497,384.356756 238.257791,380.594261 C232.973387,368.888719 229.638341,358.49371 214.407516,352.692609 C199.881277,347.159251 187.302048,352.380242 177.752543,356.222591 C174.546672,357.516683 158.810892,363.825086 139.338451,371.627215 C123.287956,410.088279 101.417571,462.096206 101.417571,462.096206 L183.927075,430.206591 L217.467772,511.128426 Z" id="Fill-16" fill="#C2C3C1"></path>
                    <path d="M155.710943,331.980565 C160.297806,319.986143 165.330906,310.29807 158.724228,295.403097 C152.418172,281.189226 139.853035,275.937703 130.395127,271.867538 C127.142283,270.467758 110.894503,263.443024 90.9805211,254.832969 C52.6321908,270.949226 1.47681468,292.255941 1.47681468,292.255941 L82.2295486,328.361336 L47.6930349,408.339024 C47.6930349,408.339024 100.835347,387.053446 139.338686,371.627684 C147.572961,351.896895 154.275934,335.728969 155.710943,331.980565" id="Fill-18" fill="#C2C3C1"></path>
                    <path d="M47.6925651,408.339494 L101.417336,462.097145 C101.417336,462.097145 123.29007,410.08687 139.338217,371.628154 C100.834877,387.053916 47.6925651,408.339494 47.6925651,408.339494" id="Fill-20" fill="#FFFFFF"></path>
                    <path d="M131.60091,237.549211 C143.252433,232.149725 153.609864,228.706642 159.255956,213.417101 C164.636653,198.834495 159.288837,186.309284 155.343149,176.802055 C154.042011,173.654899 147.665497,158.522716 139.720103,139.686752 C101.146305,123.610422 48.682745,101.566239 48.682745,101.566239 L81.4272587,183.73989 L1.79246972,216.254239 C1.79246972,216.254239 53.0417908,238.425248 90.9814606,254.832734 C111.219552,246.328367 127.890084,239.268404 131.60091,237.549211" id="Fill-22" fill="#C2C3C1"></path>
                    <path d="M1.79364404,216.253534 L1.47657982,292.255002 C1.47657982,292.255002 52.631956,270.948286 90.9826349,254.834378 C53.0406165,238.424543 1.79364404,216.253534 1.79364404,216.253534" id="Fill-24" fill="#FFFFFF"></path>
                    <path d="M179.050393,155.897894 C191.054209,160.451875 200.756374,165.456793 215.637255,158.810187 C229.829989,152.471251 235.05098,139.894371 239.09531,130.424719 C240.509182,127.124903 247.656044,110.454371 256.371787,90.1458202 C240.095824,52.2460771 218.37575,1.67550826 218.37575,1.67550826 L182.481732,82.404756 L101.184117,48.3919853 C101.184117,48.3919853 123.660448,101.611802 139.720338,139.687692 C159.312558,147.851508 175.320778,154.479325 179.050393,155.897894" id="Fill-26" fill="#C2C3C1"></path>
                    <path d="M294.376044,1.5597211 L218.376925,1.67715229 C218.376925,1.67715229 240.096998,52.2477211 256.370613,90.1451156 C272.641879,52.2077945 294.376044,1.5597211 294.376044,1.5597211" id="Fill-28" fill="#FFFFFF"></path>
                    <path d="M101.183413,48.3910459 L48.6822752,101.566239 C48.6822752,101.566239 101.145835,123.610422 139.719633,139.686752 C123.659743,101.610862 101.183413,48.3910459 101.183413,48.3910459" id="Fill-30" fill="#FFFFFF"></path>
                    <path d="M256.37625,421.917358 C239.600029,460.322055 217.468947,511.127486 217.468947,511.127486 L295.283552,511.127486 C295.283552,511.127486 273.15247,460.322055 256.37625,421.917358" id="Fill-32" fill="#FFFFFF"></path>
                </g>
            </g>
        </g>
    </g>
</svg>