<?xml version="1.0" encoding="UTF-8"?>
<!DOCTYPE svg PUBLIC "-//W3C//DTD SVG 1.1//EN" "http://www.w3.org/Graphics/SVG/1.1/DTD/svg11.dtd">
<svg version="1.1" xmlns="http://www.w3.org/2000/svg" xmlns:xlink="http://www.w3.org/1999/xlink" x="0" y="0" width="2048" height="1220" viewBox="0, 0, 2048, 1220">
  <g id="Logo">
    <path d="M211.698,1087.551 L345.618,1087.551 L345.618,1030.052 L320.554,1030.052 L317.114,1065.436 L266.495,1065.436 L266.495,936.676 L289.593,936.676 L289.593,915.544 L211.698,915.544 L211.698,936.676 L221.036,936.676 C224.722,936.676 228.162,941.099 228.162,944.294 L228.162,1059.539 C228.162,1062.733 224.722,1067.156 221.036,1067.156 L211.698,1067.156 L211.698,1087.551 z M479.398,1029.806 C479.398,1028.577 479.889,1024.4 479.889,1019.977 C479.889,976.238 459.74,956.58 421.161,956.58 C382.336,956.58 356.535,982.135 356.535,1023.663 C356.535,1064.207 378.896,1089.271 423.618,1089.271 C450.648,1089.271 464.654,1083.128 475.22,1076.739 L475.22,1053.15 L454.825,1053.15 C448.191,1061.505 442.539,1067.156 426.567,1067.156 C405.926,1067.156 394.623,1055.361 393.148,1029.806 L479.398,1029.806 z M421.161,977.958 C435.904,977.958 442.785,986.804 444.013,1009.411 L393.64,1009.411 C396.343,987.296 406.172,977.958 421.161,977.958 z M527.174,1089.026 C542.9,1089.026 554.941,1084.848 564.524,1073.054 C567.718,1083.374 575.336,1089.271 590.325,1089.271 C599.662,1089.271 607.034,1087.306 611.949,1084.357 L611.949,1067.156 L605.068,1067.156 C602.12,1067.156 598.925,1063.962 598.925,1061.013 L598.925,996.879 C598.925,967.392 581.233,956.58 547.815,956.58 C522.751,956.58 506.533,961.003 494.492,966.409 L494.492,992.702 L510.956,992.702 C517.345,987.05 525.208,981.153 540.689,981.153 C555.924,981.153 563.05,987.296 563.05,1000.319 L563.05,1013.834 C554.941,1011.868 547.569,1010.885 536.757,1010.885 C507.024,1010.885 485.892,1023.171 485.892,1050.201 C485.892,1075.756 503.093,1089.026 527.174,1089.026 z M540.443,1067.893 C528.402,1067.893 520.785,1061.75 520.785,1048.727 C520.785,1035.703 529.631,1029.806 544.129,1029.806 C551.009,1029.806 557.398,1030.297 563.05,1031.28 L563.05,1058.802 C556.906,1064.453 549.535,1067.893 540.443,1067.893 z M616.477,1087.551 L685.034,1087.551 L685.034,1067.156 L667.097,1067.156 L667.097,992.947 C674.223,989.016 685.526,985.084 704.201,985.084 L710.344,985.084 L710.344,958.546 C707.887,957.809 705.184,957.317 702.481,957.317 C685.526,957.317 675.451,966.655 666.851,977.221 C666.359,962.232 663.656,958.546 659.479,958.546 L615.494,958.546 L615.494,980.17 L625.078,980.17 C628.026,980.17 631.221,984.101 631.221,986.804 L631.221,1061.013 C631.221,1063.716 628.026,1067.156 625.078,1067.156 L616.477,1067.156 L616.477,1087.551 z M715.61,1087.551 L781.218,1087.551 L781.218,1067.156 L766.229,1067.156 L766.229,989.507 C774.584,986.804 784.167,984.593 794.487,984.593 C806.528,984.593 811.442,988.279 811.442,1001.056 L811.442,1067.156 L796.699,1067.156 L796.699,1087.551 L860.342,1087.551 L860.342,1067.156 L853.461,1067.156 C850.513,1067.156 847.318,1063.962 847.318,1061.013 L847.318,988.77 C847.318,963.706 831.838,956.58 813.9,956.58 C794.487,956.58 778.024,963.952 765.983,975.255 C765.246,961.986 762.789,958.546 758.612,958.546 L714.627,958.546 L714.627,980.17 L724.21,980.17 C727.159,980.17 730.353,984.101 730.353,986.804 L730.353,1061.013 C730.353,1063.716 727.159,1067.156 724.21,1067.156 L715.61,1067.156 L715.61,1087.551 z M986.234,1029.806 C986.234,1028.577 986.725,1024.4 986.725,1019.977 C986.725,976.238 966.576,956.58 927.997,956.58 C889.172,956.58 863.371,982.135 863.371,1023.663 C863.371,1064.207 885.732,1089.271 930.454,1089.271 C957.484,1089.271 971.49,1083.128 982.056,1076.739 L982.056,1053.15 L961.661,1053.15 C955.026,1061.505 949.375,1067.156 933.403,1067.156 C912.762,1067.156 901.459,1055.361 899.984,1029.806 L986.234,1029.806 z M927.997,977.958 C942.74,977.958 949.621,986.804 950.849,1009.411 L900.476,1009.411 C903.179,987.296 913.008,977.958 927.997,977.958 z M991.991,1087.551 L1060.548,1087.551 L1060.548,1067.156 L1042.61,1067.156 L1042.61,992.947 C1049.736,989.016 1061.039,985.084 1079.714,985.084 L1085.858,985.084 L1085.858,958.546 C1083.4,957.809 1080.697,957.317 1077.994,957.317 C1061.039,957.317 1050.965,966.655 1042.364,977.221 C1041.873,962.232 1039.17,958.546 1034.993,958.546 L991.008,958.546 L991.008,980.17 L1000.591,980.17 C1003.54,980.17 1006.734,984.101 1006.734,986.804 L1006.734,1061.013 C1006.734,1063.716 1003.54,1067.156 1000.591,1067.156 L991.991,1067.156 L991.991,1087.551 z M1133.879,1089.026 C1172.95,1089.026 1189.905,1072.562 1189.905,1047.252 C1189.905,1021.206 1177.127,1012.605 1145.92,1007.937 C1124.05,1004.742 1119.382,1000.073 1119.382,992.21 C1119.382,984.101 1126.753,978.695 1140.022,978.695 C1153.537,978.695 1161.401,983.61 1165.578,991.227 L1185.481,991.227 L1185.481,962.723 C1175.161,959.283 1161.401,957.072 1141.251,957.072 C1108.324,957.072 1088.666,971.815 1088.666,997.37 C1088.666,1022.68 1101.689,1032.263 1129.456,1036.195 C1150.097,1039.144 1155.749,1043.075 1155.749,1052.658 C1155.749,1061.996 1147.394,1067.893 1133.634,1067.893 C1122.33,1067.893 1110.781,1062.242 1107.833,1053.15 L1087.192,1053.15 L1087.192,1082.145 C1097.758,1085.585 1110.536,1089.026 1133.879,1089.026 z M1319.121,1089.517 C1335.339,1089.517 1344.922,1086.814 1354.505,1082.145 C1359.42,1082.145 1361.386,1087.551 1361.386,1087.551 L1381.535,1087.551 L1381.535,1034.475 C1381.535,1031.28 1384.975,1026.857 1388.661,1026.857 L1394.558,1026.857 L1394.558,1005.725 L1326.984,1005.725 L1326.984,1026.857 L1343.939,1026.857 L1343.939,1062.242 C1337.796,1064.207 1331.899,1065.19 1320.841,1065.19 C1293.566,1065.19 1278.822,1043.075 1278.822,1000.565 C1278.822,957.072 1298.234,938.642 1324.036,938.642 C1335.585,938.642 1344.431,940.608 1350.082,942.82 L1354.014,969.604 L1379.569,969.604 L1379.569,915.544 L1351.557,915.544 C1347.379,914.807 1337.796,913.578 1324.036,913.578 C1271.942,913.578 1238.523,945.768 1238.523,1002.039 C1238.523,1058.31 1269.73,1089.517 1319.121,1089.517 z M1447.003,1089.271 C1467.644,1089.271 1481.896,1082.637 1493.691,1071.579 C1494.674,1084.357 1496.885,1087.551 1501.063,1087.551 L1543.819,1087.551 L1543.819,1067.156 L1535.464,1067.156 C1532.515,1067.156 1529.321,1063.225 1529.321,1060.522 L1529.321,958.546 L1476.49,958.546 L1476.49,980.17 L1493.445,980.17 L1493.445,1057.819 C1485.582,1061.013 1475.753,1063.962 1466.416,1063.962 C1455.112,1063.962 1448.232,1060.03 1448.232,1046.024 L1448.232,958.546 L1397.858,958.546 L1397.858,980.17 L1406.213,980.17 C1408.916,980.17 1412.356,983.364 1412.356,986.313 L1412.356,1057.327 C1412.356,1082.391 1429.065,1089.271 1447.003,1089.271 z M1548.347,1087.551 L1615.184,1087.551 L1615.184,1067.156 L1605.847,1067.156 C1602.898,1067.156 1599.704,1063.962 1599.704,1061.013 L1599.704,972.307 C1599.704,962.478 1597.738,958.546 1593.806,958.546 L1547.365,958.546 L1547.365,980.17 L1557.685,980.17 C1560.634,980.17 1563.582,984.101 1563.582,986.804 L1563.582,1061.013 C1563.582,1063.716 1560.634,1067.156 1557.685,1067.156 L1548.347,1067.156 L1548.347,1087.551 z M1581.274,948.471 C1592.086,948.471 1600.687,940.117 1600.687,929.55 C1600.687,918.984 1592.086,910.384 1581.274,910.384 C1570.463,910.384 1561.862,918.984 1561.862,929.55 C1561.862,940.117 1570.463,948.471 1581.274,948.471 z M1619.467,1087.551 L1687.287,1087.551 L1687.287,1067.156 L1677.213,1067.156 C1674.51,1067.156 1671.069,1063.962 1671.069,1061.013 L1671.069,923.899 C1671.069,918.493 1669.104,915.544 1664.926,915.544 L1618.73,915.544 L1618.73,936.676 L1629.051,936.676 C1631.999,936.676 1635.194,940.608 1635.194,943.311 L1635.194,1061.013 C1635.194,1063.716 1631.999,1067.156 1629.051,1067.156 L1619.467,1067.156 L1619.467,1087.551 z M1746.612,1089.517 C1764.55,1089.517 1777.574,1082.637 1785.928,1073.054 C1786.666,1082.145 1788.877,1087.551 1792.563,1087.551 L1836.302,1087.551 L1836.302,1067.156 L1827.456,1067.156 C1824.507,1067.156 1821.313,1063.225 1821.313,1060.522 L1821.313,923.899 C1821.313,918.739 1819.347,915.544 1815.17,915.544 L1768.728,915.544 L1768.728,936.676 L1785.437,936.676 L1785.437,973.289 C1777.082,963.215 1766.516,956.58 1748.578,956.58 C1723.514,956.58 1693.045,975.992 1693.045,1024.646 C1693.045,1074.036 1720.811,1089.517 1746.612,1089.517 z M1758.653,1067.893 C1743.909,1067.893 1729.412,1059.047 1729.412,1023.663 C1729.412,990.982 1744.647,981.153 1761.602,981.153 C1770.202,981.153 1779.048,983.856 1785.437,986.804 L1785.437,1057.573 C1778.311,1063.716 1769.956,1067.893 1758.653,1067.893 z" fill="#FFFFFE" id="Learners-Guild"/>
    <g id="Group-2">
      <path d="M1076.208,803.524 L1120.501,696.645 L1229.468,738.769 C1229.468,738.769 1200.603,670.074 1179.373,619.268 C1153.685,608.965 1132.887,600.639 1128.65,598.931 C1116.043,593.854 1099.425,586.958 1080.239,594.267 C1060.122,601.926 1055.717,615.66 1048.735,631.117 C1046.508,636.084 1036.656,658.547 1024.817,685.689 C1046.954,736.422 1076.208,803.524 1076.208,803.524" fill="#009ACC" id="Fill-1"/>
      <path d="M1361.485,514.437 C1361.485,514.437 1293.918,486.301 1243.276,465.014 C1216.969,476.387 1195.504,485.668 1191.175,487.516 C1178.736,492.885 1162.109,499.829 1153.797,518.593 C1145.058,538.273 1151.714,551.071 1157.751,566.912 C1159.671,571.855 1168.529,593.215 1179.375,619.272 C1230.247,639.648 1300.449,667.76 1300.449,667.76 L1254.812,562.128 L1361.485,514.437 z" fill="#8FC33F" id="Fill-3"/>
      <path d="M1229.47,738.768 L1300.45,667.76 C1300.45,667.76 1230.248,639.649 1179.375,619.273 C1200.601,670.078 1229.47,738.768 1229.47,738.768" fill="#424B8A" id="Fill-5"/>
      <path d="M1158.247,361.948 C1153.036,374.506 1145.977,391.048 1153.093,410.31 C1160.551,430.513 1174.237,435.053 1189.636,442.184 C1194.512,444.463 1216.534,453.778 1243.278,465.017 C1293.363,443.34 1361.055,414.058 1361.055,414.058 L1255.875,371.108 L1299.117,262.569 C1299.117,262.569 1229.846,291.688 1178.906,312.927 C1168.387,337.809 1159.98,357.792 1158.247,361.948" fill="#DC3C59" id="Fill-7"/>
      <path d="M1361.485,514.437 L1361.053,414.06 C1361.053,414.06 1293.366,443.343 1243.276,465.014 C1293.918,486.302 1361.485,514.437 1361.485,514.437" fill="#208357" id="Fill-9"/>
      <path d="M1047.621,300.693 C1052.972,313.198 1059.872,329.812 1078.626,338.191 C1098.263,346.972 1111.095,340.355 1126.941,334.337 C1131.865,332.461 1153.018,323.712 1178.903,312.93 C1200.08,262.633 1229.78,192.345 1229.78,192.345 L1122.416,237.262 L1074.998,130.483 C1074.998,130.483 1046.301,197.388 1024.788,247.488 C1036.325,274.313 1045.773,296.335 1047.621,300.693" fill="#EAB629" id="Fill-11"/>
      <path d="M1299.119,262.569 L1229.781,192.343 C1229.781,192.343 1200.076,262.636 1178.904,312.928 C1229.843,291.688 1299.119,262.569 1299.119,262.569" fill="#852044" id="Fill-13"/>
      <path d="M973.417,803.524 C973.417,803.524 1002.652,736.422 1024.818,685.689 C1012.95,658.547 1003.117,636.084 1000.872,631.117 C993.908,615.66 989.503,601.926 969.396,594.267 C950.191,586.958 933.582,593.854 920.957,598.931 C916.724,600.639 895.95,608.965 870.233,619.268 C849.032,670.074 820.138,738.769 820.138,738.769 L929.115,696.645 L973.417,803.524 z" fill="#EAB629" id="Fill-15"/>
      <path d="M891.856,566.91 C897.922,551.07 904.549,538.271 895.829,518.596 C887.499,499.828 870.89,492.884 858.413,487.514 C854.104,485.666 832.638,476.39 806.36,465.017 C755.718,486.3 688.122,514.435 688.122,514.435 L794.79,562.126 L749.187,667.763 C749.187,667.763 819.374,639.646 870.232,619.27 C881.107,593.213 889.96,571.853 891.856,566.91" fill="#DC3C59" id="Fill-17"/>
      <path d="M749.184,667.761 L820.135,738.769 C820.135,738.769 849.034,670.074 870.235,619.273 C819.377,639.649 749.184,667.761 749.184,667.761" fill="#852044" id="Fill-19"/>
      <path d="M859.998,442.183 C875.397,435.056 889.065,430.512 896.541,410.309 C903.648,391.051 896.57,374.505 891.378,361.946 C889.626,357.79 881.218,337.808 870.728,312.926 C819.779,291.691 750.489,262.567 750.489,262.567 L793.731,371.107 L688.55,414.061 C688.55,414.061 756.243,443.339 806.357,465.015 C833.091,453.777 855.098,444.467 859.998,442.183" fill="#8FC33F" id="Fill-21"/>
      <path d="M688.552,414.06 L688.12,514.437 C688.12,514.437 755.717,486.302 806.359,465.014 C756.24,443.343 688.552,414.06 688.552,414.06" fill="#208357" id="Fill-23"/>
      <path d="M922.664,334.336 C938.534,340.353 951.347,346.971 971.008,338.194 C989.761,329.815 996.633,313.202 1001.984,300.691 C1003.851,296.334 1013.309,274.317 1024.788,247.486 C1003.308,197.439 974.626,130.64 974.626,130.64 L927.209,237.26 L819.825,192.343 C819.825,192.343 849.511,262.636 870.731,312.928 C896.616,323.711 917.764,332.459 922.664,334.336" fill="#009ACC" id="Fill-25"/>
      <path d="M1074.999,130.484 L974.626,130.637 C974.626,130.637 1003.309,197.437 1024.789,247.489 C1046.302,197.384 1074.999,130.484 1074.999,130.484" fill="#D66A2D" id="Fill-27"/>
      <path d="M819.827,192.344 L750.488,262.57 C750.488,262.57 819.779,291.689 870.728,312.929 C849.512,262.632 819.827,192.344 819.827,192.344" fill="#424B8A" id="Fill-29"/>
      <path d="M1024.817,685.69 C1002.652,736.419 973.417,803.526 973.417,803.526 L1076.208,803.526 C1076.208,803.526 1046.954,736.419 1024.817,685.69" fill="#D66A2D" id="Fill-31"/>
    </g>
  </g>
</svg>
