<?xml version="1.0" encoding="UTF-8"?>
<!DOCTYPE svg PUBLIC "-//W3C//DTD SVG 1.1//EN" "http://www.w3.org/Graphics/SVG/1.1/DTD/svg11.dtd">
<svg version="1.1" xmlns="http://www.w3.org/2000/svg" xmlns:xlink="http://www.w3.org/1999/xlink" x="0" y="0" width="512" height="512" viewBox="0, 0, 512, 512">
  <g id="Icon">
    <path d="M287.128,459.827 L313.958,395.089 L379.966,420.603 C379.966,420.603 362.473,378.995 349.631,348.228 C334.051,341.984 321.463,336.939 318.898,335.904 C311.26,332.828 301.195,328.653 289.574,333.078 C277.389,337.721 274.721,346.035 270.496,355.401 C269.141,358.41 263.183,372.015 256.002,388.459 C269.421,419.181 287.128,459.827 287.128,459.827" fill="#009ACC" id="Fill-1"/>
    <path d="M459.92,284.73 C459.92,284.73 418.996,267.684 388.316,254.791 C372.386,261.681 359.388,267.301 356.784,268.421 C349.219,271.675 339.165,275.878 334.122,287.247 C328.837,299.163 332.862,306.916 336.531,316.509 C337.679,319.508 343.043,332.444 349.631,348.227 C380.432,360.568 422.946,377.596 422.946,377.596 L395.318,313.614 L459.92,284.73 z" fill="#8FC33F" id="Fill-3"/>
    <path d="M379.966,420.603 L422.946,377.595 C422.946,377.595 380.432,360.569 349.63,348.226 C362.472,378.995 379.966,420.603 379.966,420.603" fill="#424B8A" id="Fill-5"/>
    <path d="M336.825,192.366 C333.67,199.972 329.39,209.992 333.697,221.66 C338.212,233.892 346.499,236.646 355.821,240.966 C358.787,242.343 372.126,247.989 388.314,254.793 C418.67,241.665 459.667,223.928 459.667,223.928 L395.96,197.919 L422.153,132.18 C422.153,132.18 380.184,149.815 349.325,162.676 C342.971,177.745 337.871,189.851 336.825,192.366" fill="#DC3C59" id="Fill-7"/>
    <path d="M459.92,284.73 L459.667,223.928 C459.667,223.928 418.669,241.665 388.316,254.791 C418.996,267.684 459.92,284.73 459.92,284.73" fill="#208357" id="Fill-9"/>
    <path d="M269.823,155.266 C273.06,162.84 277.235,172.904 288.59,177.975 C300.494,183.294 308.256,179.29 317.859,175.643 C320.843,174.51 333.653,169.208 349.325,162.675 C362.173,132.214 380.156,89.638 380.156,89.638 L315.116,116.85 L286.401,52.173 C286.401,52.173 269.013,92.692 255.996,123.043 C262.971,139.288 268.694,152.625 269.823,155.266" fill="#EAB629" id="Fill-11"/>
    <path d="M422.153,132.179 L380.154,89.639 C380.154,89.639 362.173,132.215 349.325,162.676 C380.184,149.815 422.153,132.179 422.153,132.179" fill="#852044" id="Fill-13"/>
    <path d="M224.873,459.827 C224.873,459.827 242.579,419.181 256,388.459 C248.817,372.015 242.861,358.41 241.505,355.401 C237.279,346.035 234.611,337.721 222.426,333.078 C210.805,328.653 200.74,332.828 193.102,335.904 C190.538,336.939 177.949,341.984 162.369,348.228 C149.529,378.995 132.034,420.603 132.034,420.603 L198.042,395.089 L224.873,459.827 z" fill="#EAB629" id="Fill-15"/>
    <path d="M175.469,316.51 C179.138,306.916 183.163,299.164 177.878,287.248 C172.835,275.878 162.781,271.675 155.216,268.421 C152.614,267.301 139.616,261.681 123.685,254.791 C93.004,267.685 52.08,284.73 52.08,284.73 L116.682,313.614 L89.055,377.596 C89.055,377.596 131.568,360.568 162.369,348.227 C168.957,332.443 174.321,319.508 175.469,316.51" fill="#DC3C59" id="Fill-17"/>
    <path d="M89.054,377.596 L132.034,420.604 C132.034,420.604 149.53,378.996 162.371,348.227 C131.568,360.567 89.054,377.596 89.054,377.596" fill="#852044" id="Fill-19"/>
    <path d="M156.179,240.966 C165.5,236.647 173.788,233.892 178.303,221.661 C182.61,209.993 178.329,199.973 175.175,192.367 C174.132,189.849 169.031,177.745 162.674,162.676 C131.815,149.813 89.846,132.18 89.846,132.18 L116.042,197.917 L52.332,223.928 C52.332,223.928 93.332,241.665 123.685,254.791 C139.874,247.99 153.212,242.342 156.179,240.966" fill="#8FC33F" id="Fill-21"/>
    <path d="M52.333,223.929 L52.08,284.73 C52.08,284.73 93.004,267.685 123.686,254.792 C93.331,241.666 52.333,223.929 52.333,223.929" fill="#208357" id="Fill-23"/>
    <path d="M194.141,175.643 C203.744,179.288 211.505,183.292 223.41,177.975 C234.764,172.904 238.941,162.841 242.176,155.267 C243.306,152.627 249.025,139.29 255.996,123.042 C242.975,92.724 225.599,52.267 225.599,52.267 L196.884,116.849 L131.846,89.639 C131.846,89.639 149.827,132.215 162.675,162.675 C178.348,169.208 191.157,174.51 194.141,175.643" fill="#009ACC" id="Fill-25"/>
    <path d="M286.401,52.174 L225.6,52.268 C225.6,52.268 242.976,92.724 255.995,123.042 C269.014,92.692 286.401,52.174 286.401,52.174" fill="#D66A2D" id="Fill-27"/>
    <path d="M131.845,89.639 L89.846,132.179 C89.846,132.179 131.815,149.814 162.674,162.675 C149.826,132.215 131.845,89.639 131.845,89.639" fill="#424B8A" id="Fill-29"/>
    <path d="M256.001,388.458 C242.578,419.182 224.873,459.826 224.873,459.826 L287.127,459.826 C287.127,459.826 269.422,419.182 256.001,388.458" fill="#D66A2D" id="Fill-31"/>
  </g>
</svg>
