<?xml version="1.0" encoding="UTF-8"?>
<svg width="512px" height="512px" viewBox="0 0 512 512" version="1.1" xmlns="http://www.w3.org/2000/svg" xmlns:xlink="http://www.w3.org/1999/xlink" style="background: #FFFFFF;">
    <!-- Generator: Sketch 41.2 (35397) - http://www.bohemiancoding.com/sketch -->
    <title>learners-guild-icon-on-white</title>
    <desc>Created with Sketch.</desc>
    <defs></defs>
    <g id="Icon" stroke="none" stroke-width="1" fill="none" fill-rule="evenodd">
        <g id="learners-guild-icon-on-white">
            <g id="Just-Mark-Color" transform="translate(64.000000, 64.000000)">
                <g transform="translate(0.000000, 1.000000)">
                    <path d="M294.573328,510.331347 L328.111677,429.409512 L410.621182,461.301475 C410.621182,461.301475 388.755494,409.2912 372.70265,370.832484 C353.227861,363.028007 337.492081,356.721952 334.286209,355.427861 C324.739053,351.583163 312.157475,346.364521 297.631237,351.89553 C282.400411,357.69898 279.065365,368.09164 273.78331,379.79953 C272.089952,383.559677 264.642466,400.566062 255.666026,421.121218 C272.439897,459.523567 294.573328,510.331347 294.573328,510.331347" id="Fill-1" fill="#009ACC"></path>
                    <path d="M510.564286,291.459802 C510.564286,291.459802 459.40891,270.153086 421.058231,254.036829 C401.146598,262.649233 384.898818,269.673967 381.643626,271.073747 C372.188066,275.141563 359.62058,280.395435 353.316873,294.606958 C346.710194,309.50193 351.740947,319.192352 356.327809,331.184426 C357.762818,334.932829 364.468139,351.103105 372.702415,370.831545 C411.203406,386.257306 464.345717,407.542884 464.345717,407.542884 L429.811552,327.565196 L510.564286,291.459802 Z" id="Fill-3" fill="#8FC33F"></path>
                    <path d="M410.621651,461.30171 L464.346422,407.54171 C464.346422,407.54171 411.20411,386.258481 372.700771,370.830371 C388.753615,409.291435 410.621651,461.30171 410.621651,461.30171" id="Fill-5" fill="#424B8A"></path>
                    <path d="M356.694899,176.005681 C352.75156,185.51291 347.401394,198.038121 352.78444,212.623075 C358.428183,227.912617 368.787963,231.355699 380.439486,236.755185 C384.147963,238.476727 400.820844,245.534341 421.056587,254.038708 C459.000954,237.628873 510.247927,215.457864 510.247927,215.457864 L430.613138,182.945864 L463.355303,100.772213 C463.355303,100.772213 410.894092,122.816396 372.320294,138.892727 C364.377248,157.72869 358.003083,172.860873 356.694899,176.005681" id="Fill-7" fill="#DC3C59"></path>
                    <path d="M510.564286,291.459802 L510.247222,215.458334 C510.247222,215.458334 459.00025,237.629343 421.058231,254.036829 C459.40891,270.153086 510.564286,291.459802 510.564286,291.459802" id="Fill-9" fill="#208357"></path>
                    <path d="M272.942738,129.630694 C276.989417,139.097996 282.208059,151.677226 296.400793,158.016161 C311.281673,164.665116 320.983839,159.660198 332.987655,155.101519 C336.71727,153.685299 352.730187,147.057483 372.320059,138.891317 C388.379949,100.815428 410.858628,47.595611 410.858628,47.595611 L329.558664,81.6107303 L293.664646,0.764051376 C293.664646,0.764051376 271.930481,51.4121248 255.659215,89.3517945 C264.377306,109.657996 271.531215,126.328528 272.942738,129.630694" id="Fill-11" fill="#EAB629"></path>
                    <path d="M463.355538,100.771743 L410.856749,47.5965505 C410.856749,47.5965505 388.380418,100.816367 372.320528,138.892257 C410.894327,122.815927 463.355538,100.771743 463.355538,100.771743" id="Fill-13" fill="#852044"></path>
                    <path d="M216.754495,510.331347 C216.754495,510.331347 238.887927,459.523567 255.664147,421.121218 C246.685358,400.566062 239.24022,383.559677 237.544514,379.79953 C232.262459,368.09164 228.927413,357.69898 213.696587,351.89553 C199.170349,346.364521 186.588771,351.583163 177.041615,355.427861 C173.835743,356.721952 158.099963,363.028007 138.625174,370.832484 C122.574679,409.2912 100.706642,461.301475 100.706642,461.301475 L183.216147,429.409512 L216.754495,510.331347 Z" id="Fill-15" fill="#EAB629"></path>
                    <path d="M155.000015,331.184661 C159.586877,319.192587 164.617629,309.502165 158.01095,294.607193 C151.707244,280.39567 139.139758,275.141798 129.684198,271.073982 C126.431354,269.674202 110.183574,262.649468 90.2695927,254.037064 C51.9189138,270.153321 0.763537615,291.460037 0.763537615,291.460037 L81.5162716,327.565431 L46.9821064,407.543119 C46.9821064,407.543119 100.124418,386.257541 138.625409,370.83178 C146.859684,351.100991 153.565006,334.933064 155.000015,331.184661" id="Fill-17" fill="#DC3C59"></path>
                    <path d="M46.9816367,407.542415 L100.706407,461.302415 C100.706407,461.302415 122.576793,409.292139 138.627288,370.831075 C100.123949,386.256837 46.9816367,407.542415 46.9816367,407.542415" id="Fill-19" fill="#852044"></path>
                    <path d="M130.887633,236.755655 C142.539156,231.356169 152.898936,227.913086 158.542679,212.623545 C163.925725,198.038591 158.57556,185.51338 154.63222,176.00615 C153.328734,172.858994 146.95222,157.72916 139.006826,138.893196 C100.433028,122.814517 47.9718165,100.772683 47.9718165,100.772683 L80.7163303,182.943985 L1.07919266,215.458334 C1.07919266,215.458334 52.3285138,237.629343 90.2705321,254.036829 C110.506275,245.534811 127.179156,238.474848 130.887633,236.755655" id="Fill-21" fill="#8FC33F"></path>
                    <path d="M1.08036697,215.458804 L0.763302752,291.460272 C0.763302752,291.460272 51.9186789,270.153556 90.2717064,254.037299 C52.3273394,237.629813 1.08036697,215.458804 1.08036697,215.458804" id="Fill-23" fill="#208357"></path>
                    <path d="M178.339464,155.101989 C190.343281,159.658319 200.045446,164.663237 214.926327,158.016631 C229.119061,151.677695 234.340051,139.098466 238.384382,129.631163 C239.795905,126.331347 246.945116,109.660815 255.65851,89.3499156 C239.382547,51.4525211 217.662473,0.881952294 217.662473,0.881952294 L181.768455,81.6088514 L100.47084,47.5960807 C100.47084,47.5960807 122.947171,100.815897 139.007061,138.891787 C158.599281,147.057952 174.60985,153.685769 178.339464,155.101989" id="Fill-25" fill="#009ACC"></path>
                    <path d="M293.665116,0.764990826 L217.663648,0.882422018 C217.663648,0.882422018 239.383721,51.4529908 255.657336,89.3503853 C271.93095,51.4130642 293.665116,0.764990826 293.665116,0.764990826" id="Fill-27" fill="#D66A2D"></path>
                    <path d="M100.470136,47.5963156 L47.9713468,100.771508 C47.9713468,100.771508 100.432558,122.815692 139.006356,138.892022 C122.946466,100.816132 100.470136,47.5963156 100.470136,47.5963156" id="Fill-29" fill="#424B8A"></path>
                    <path d="M255.665086,421.120514 C238.886517,459.525211 216.755435,510.330642 216.755435,510.330642 L294.572389,510.330642 C294.572389,510.330642 272.441306,459.525211 255.665086,421.120514" id="Fill-31" fill="#D66A2D"></path>
                </g>
            </g>
        </g>
    </g>
</svg>