<?xml version="1.0" encoding="UTF-8"?>
<!DOCTYPE svg PUBLIC "-//W3C//DTD SVG 1.1//EN" "http://www.w3.org/Graphics/SVG/1.1/DTD/svg11.dtd">
<svg version="1.1" xmlns="http://www.w3.org/2000/svg" xmlns:xlink="http://www.w3.org/1999/xlink" x="0" y="0" width="2048" height="1220" viewBox="0, 0, 2048, 1220">
  <g id="Logo">
    <path d="M262.281,1057.815 L387.862,1057.815 L387.862,1003.896 L364.358,1003.896 L361.133,1037.077 L313.665,1037.077 L313.665,916.335 L335.325,916.335 L335.325,896.519 L262.281,896.519 L262.281,916.335 L271.037,916.335 C274.493,916.335 277.719,920.483 277.719,923.479 L277.719,1031.547 C277.719,1034.542 274.493,1038.69 271.037,1038.69 L262.281,1038.69 L262.281,1057.815 z M513.311,1003.666 C513.311,1002.514 513.771,998.596 513.771,994.449 C513.771,953.434 494.877,935 458.7,935 C422.294,935 398.099,958.964 398.099,997.905 C398.099,1035.925 419.068,1059.428 461.005,1059.428 C486.351,1059.428 499.485,1053.667 509.393,1047.677 L509.393,1025.556 L490.268,1025.556 C484.047,1033.39 478.747,1038.69 463.77,1038.69 C444.414,1038.69 433.815,1027.63 432.432,1003.666 L513.311,1003.666 z M458.7,955.047 C472.526,955.047 478.978,963.342 480.13,984.541 L432.893,984.541 C435.428,963.803 444.645,955.047 458.7,955.047 z M558.112,1059.198 C572.859,1059.198 584.149,1055.281 593.136,1044.22 C596.131,1053.898 603.275,1059.428 617.33,1059.428 C626.086,1059.428 632.999,1057.585 637.608,1054.82 L637.608,1038.69 L631.156,1038.69 C628.391,1038.69 625.395,1035.695 625.395,1032.929 L625.395,972.789 C625.395,945.138 608.805,935 577.467,935 C553.964,935 538.756,939.147 527.465,944.217 L527.465,968.872 L542.904,968.872 C548.895,963.572 556.268,958.042 570.785,958.042 C585.071,958.042 591.753,963.803 591.753,976.015 L591.753,988.688 C584.149,986.845 577.237,985.923 567.098,985.923 C539.217,985.923 519.401,997.444 519.401,1022.791 C519.401,1046.755 535.53,1059.198 558.112,1059.198 z M570.555,1039.381 C559.264,1039.381 552.121,1033.621 552.121,1021.408 C552.121,1009.196 560.416,1003.666 574.011,1003.666 C580.463,1003.666 586.454,1004.127 591.753,1005.048 L591.753,1030.856 C585.993,1036.155 579.08,1039.381 570.555,1039.381 z M641.854,1057.815 L706.142,1057.815 L706.142,1038.69 L689.321,1038.69 L689.321,969.102 C696.004,965.416 706.603,961.729 724.115,961.729 L729.876,961.729 L729.876,936.843 C727.572,936.152 725.037,935.691 722.502,935.691 C706.603,935.691 697.156,944.447 689.091,954.355 C688.63,940.299 686.095,936.843 682.178,936.843 L640.933,936.843 L640.933,957.12 L649.919,957.12 C652.684,957.12 655.68,960.807 655.68,963.342 L655.68,1032.929 C655.68,1035.464 652.684,1038.69 649.919,1038.69 L641.854,1038.69 L641.854,1057.815 z M734.814,1057.815 L796.337,1057.815 L796.337,1038.69 L782.281,1038.69 L782.281,965.876 C790.115,963.342 799.102,961.268 808.779,961.268 C820.07,961.268 824.679,964.724 824.679,976.706 L824.679,1038.69 L810.853,1038.69 L810.853,1057.815 L870.533,1057.815 L870.533,1038.69 L864.081,1038.69 C861.316,1038.69 858.32,1035.695 858.32,1032.929 L858.32,965.185 C858.32,941.682 843.804,935 826.983,935 C808.779,935 793.341,941.912 782.05,952.512 C781.359,940.069 779.055,936.843 775.138,936.843 L733.892,936.843 L733.892,957.12 L742.878,957.12 C745.644,957.12 748.639,960.807 748.639,963.342 L748.639,1032.929 C748.639,1035.464 745.644,1038.69 742.878,1038.69 L734.814,1038.69 L734.814,1057.815 z M988.585,1003.666 C988.585,1002.514 989.046,998.596 989.046,994.449 C989.046,953.434 970.151,935 933.975,935 C897.568,935 873.374,958.964 873.374,997.905 C873.374,1035.925 894.342,1059.428 936.279,1059.428 C961.626,1059.428 974.76,1053.667 984.668,1047.677 L984.668,1025.556 L965.543,1025.556 C959.322,1033.39 954.022,1038.69 939.044,1038.69 C919.689,1038.69 909.089,1027.63 907.707,1003.666 L988.585,1003.666 z M933.975,955.047 C947.8,955.047 954.252,963.342 955.404,984.541 L908.168,984.541 C910.702,963.803 919.919,955.047 933.975,955.047 z M993.984,1057.815 L1058.272,1057.815 L1058.272,1038.69 L1041.451,1038.69 L1041.451,969.102 C1048.133,965.416 1058.733,961.729 1076.245,961.729 L1082.005,961.729 L1082.005,936.843 C1079.701,936.152 1077.167,935.691 1074.632,935.691 C1058.733,935.691 1049.286,944.447 1041.221,954.355 C1040.76,940.299 1038.225,936.843 1034.308,936.843 L993.062,936.843 L993.062,957.12 L1002.049,957.12 C1004.814,957.12 1007.809,960.807 1007.809,963.342 L1007.809,1032.929 C1007.809,1035.464 1004.814,1038.69 1002.049,1038.69 L993.984,1038.69 L993.984,1057.815 z M1127.037,1059.198 C1163.674,1059.198 1179.573,1043.759 1179.573,1020.026 C1179.573,995.601 1167.591,987.536 1138.328,983.158 C1117.82,980.163 1113.442,975.785 1113.442,968.411 C1113.442,960.807 1120.355,955.738 1132.798,955.738 C1145.471,955.738 1152.844,960.346 1156.762,967.489 L1175.426,967.489 L1175.426,940.76 C1165.748,937.534 1152.844,935.461 1133.95,935.461 C1103.073,935.461 1084.639,949.286 1084.639,973.25 C1084.639,996.983 1096.852,1005.97 1122.889,1009.657 C1142.245,1012.422 1147.545,1016.109 1147.545,1025.095 C1147.545,1033.851 1139.71,1039.381 1126.807,1039.381 C1116.207,1039.381 1105.377,1034.082 1102.612,1025.556 L1083.257,1025.556 L1083.257,1052.746 C1093.165,1055.972 1105.147,1059.198 1127.037,1059.198 z M1300.744,1059.659 C1315.951,1059.659 1324.938,1057.124 1333.924,1052.746 C1338.533,1052.746 1340.376,1057.815 1340.376,1057.815 L1359.271,1057.815 L1359.271,1008.044 C1359.271,1005.048 1362.497,1000.901 1365.953,1000.901 L1371.483,1000.901 L1371.483,981.084 L1308.117,981.084 L1308.117,1000.901 L1324.016,1000.901 L1324.016,1034.082 C1318.256,1035.925 1312.725,1036.847 1302.356,1036.847 C1276.78,1036.847 1262.954,1016.109 1262.954,976.245 C1262.954,935.461 1281.158,918.179 1305.352,918.179 C1316.182,918.179 1324.477,920.022 1329.777,922.096 L1333.464,947.212 L1357.427,947.212 L1357.427,896.519 L1331.159,896.519 C1327.242,895.828 1318.256,894.676 1305.352,894.676 C1256.502,894.676 1225.165,924.861 1225.165,977.628 C1225.165,1030.395 1254.428,1059.659 1300.744,1059.659 z M1420.662,1059.428 C1440.018,1059.428 1453.382,1053.207 1464.443,1042.838 C1465.365,1054.82 1467.438,1057.815 1471.355,1057.815 L1511.449,1057.815 L1511.449,1038.69 L1503.615,1038.69 C1500.85,1038.69 1497.854,1035.003 1497.854,1032.469 L1497.854,936.843 L1448.313,936.843 L1448.313,957.12 L1464.212,957.12 L1464.212,1029.934 C1456.839,1032.929 1447.622,1035.695 1438.866,1035.695 C1428.266,1035.695 1421.815,1032.008 1421.815,1018.874 L1421.815,936.843 L1374.578,936.843 L1374.578,957.12 L1382.412,957.12 C1384.947,957.12 1388.173,960.116 1388.173,962.881 L1388.173,1029.473 C1388.173,1052.976 1403.842,1059.428 1420.662,1059.428 z M1515.696,1057.815 L1578.371,1057.815 L1578.371,1038.69 L1569.615,1038.69 C1566.849,1038.69 1563.854,1035.695 1563.854,1032.929 L1563.854,949.747 C1563.854,940.53 1562.011,936.843 1558.324,936.843 L1514.774,936.843 L1514.774,957.12 L1524.452,957.12 C1527.217,957.12 1529.982,960.807 1529.982,963.342 L1529.982,1032.929 C1529.982,1035.464 1527.217,1038.69 1524.452,1038.69 L1515.696,1038.69 L1515.696,1057.815 z M1546.572,927.396 C1556.711,927.396 1564.776,919.561 1564.776,909.653 C1564.776,899.745 1556.711,891.68 1546.572,891.68 C1536.434,891.68 1528.369,899.745 1528.369,909.653 C1528.369,919.561 1536.434,927.396 1546.572,927.396 z M1582.387,1057.815 L1645.984,1057.815 L1645.984,1038.69 L1636.536,1038.69 C1634.002,1038.69 1630.776,1035.695 1630.776,1032.929 L1630.776,904.353 C1630.776,899.284 1628.932,896.519 1625.015,896.519 L1581.696,896.519 L1581.696,916.335 L1591.373,916.335 C1594.138,916.335 1597.134,920.022 1597.134,922.557 L1597.134,1032.929 C1597.134,1035.464 1594.138,1038.69 1591.373,1038.69 L1582.387,1038.69 L1582.387,1057.815 z M1701.615,1059.659 C1718.435,1059.659 1730.648,1053.207 1738.482,1044.22 C1739.173,1052.746 1741.247,1057.815 1744.704,1057.815 L1785.719,1057.815 L1785.719,1038.69 L1777.424,1038.69 C1774.659,1038.69 1771.663,1035.003 1771.663,1032.469 L1771.663,904.353 C1771.663,899.515 1769.82,896.519 1765.903,896.519 L1722.353,896.519 L1722.353,916.335 L1738.021,916.335 L1738.021,950.668 C1730.187,941.221 1720.279,935 1703.458,935 C1679.955,935 1651.382,953.203 1651.382,998.827 C1651.382,1045.142 1677.42,1059.659 1701.615,1059.659 z M1712.905,1039.381 C1699.08,1039.381 1685.485,1031.086 1685.485,997.905 C1685.485,967.259 1699.771,958.042 1715.67,958.042 C1723.735,958.042 1732.03,960.577 1738.021,963.342 L1738.021,1029.703 C1731.339,1035.464 1723.505,1039.381 1712.905,1039.381 z" fill="#1A1918" id="Learners-Guild"/>
    <g id="Group-2">
      <path d="M1072.954,791.472 L1114.49,691.248 L1216.671,730.749 C1216.671,730.749 1189.604,666.331 1169.695,618.69 C1145.607,609.028 1126.104,601.221 1122.13,599.619 C1110.309,594.858 1094.725,588.391 1076.734,595.245 C1057.87,602.427 1053.74,615.306 1047.192,629.8 C1045.104,634.458 1035.865,655.522 1024.764,680.974 C1045.522,728.548 1072.954,791.472 1072.954,791.472" fill="#009ACC" id="Fill-1"/>
      <path d="M1340.467,520.386 C1340.467,520.386 1277.107,494.003 1229.619,474.041 C1204.95,484.706 1184.821,493.409 1180.762,495.141 C1169.098,500.177 1153.506,506.688 1145.712,524.283 C1137.517,542.738 1143.759,554.739 1149.42,569.594 C1151.22,574.229 1159.527,594.258 1169.697,618.693 C1217.401,637.8 1283.232,664.161 1283.232,664.161 L1240.437,565.107 L1340.467,520.386 z" fill="#8FC33F" id="Fill-3"/>
      <path d="M1216.673,730.748 L1283.233,664.162 C1283.233,664.162 1217.402,637.801 1169.698,618.694 C1189.601,666.335 1216.673,730.748 1216.673,730.748" fill="#424B8A" id="Fill-5"/>
      <path d="M1149.885,377.393 C1144.998,389.169 1138.379,404.681 1145.052,422.744 C1152.045,441.689 1164.879,445.946 1179.32,452.633 C1183.892,454.77 1204.542,463.505 1229.621,474.044 C1276.587,453.717 1340.064,426.258 1340.064,426.258 L1241.433,385.983 L1281.983,284.202 C1281.983,284.202 1217.025,311.508 1169.258,331.425 C1159.394,354.758 1151.51,373.496 1149.885,377.393" fill="#DC3C59" id="Fill-7"/>
      <path d="M1340.467,520.386 L1340.062,426.26 C1340.062,426.26 1276.59,453.719 1229.619,474.041 C1277.107,494.003 1340.467,520.386 1340.467,520.386" fill="#208357" id="Fill-9"/>
      <path d="M1046.148,319.952 C1051.165,331.679 1057.636,347.258 1075.222,355.115 C1093.636,363.35 1105.669,357.145 1120.528,351.501 C1125.145,349.742 1144.981,341.538 1169.254,331.427 C1189.113,284.262 1216.963,218.351 1216.963,218.351 L1116.285,260.471 L1071.82,160.341 C1071.82,160.341 1044.91,223.08 1024.737,270.06 C1035.555,295.215 1044.415,315.866 1046.148,319.952" fill="#EAB629" id="Fill-11"/>
      <path d="M1281.985,284.202 L1216.964,218.349 C1216.964,218.349 1189.109,284.265 1169.255,331.425 C1217.023,311.508 1281.985,284.202 1281.985,284.202" fill="#852044" id="Fill-13"/>
      <path d="M976.565,791.472 C976.565,791.472 1003.979,728.548 1024.764,680.974 C1013.636,655.522 1004.415,634.458 1002.309,629.8 C995.78,615.306 991.649,602.427 972.794,595.245 C954.785,588.391 939.21,594.858 927.371,599.619 C923.402,601.221 903.921,609.028 879.806,618.69 C859.925,666.331 832.83,730.749 832.83,730.749 L935.021,691.248 L976.565,791.472 z" fill="#EAB629" id="Fill-15"/>
      <path d="M900.082,569.592 C905.77,554.738 911.985,542.736 903.808,524.286 C895.996,506.687 880.422,500.175 868.722,495.14 C864.681,493.407 844.552,484.709 819.91,474.044 C772.422,494.001 709.035,520.385 709.035,520.385 L809.061,565.106 L766.297,664.164 C766.297,664.164 832.114,637.799 879.805,618.692 C890.002,594.257 898.305,574.227 900.082,569.592" fill="#DC3C59" id="Fill-17"/>
      <path d="M766.295,664.162 L832.828,730.749 C832.828,730.749 859.927,666.331 879.808,618.694 C832.117,637.801 766.295,664.162 766.295,664.162" fill="#852044" id="Fill-19"/>
      <path d="M870.208,452.631 C884.649,445.949 897.465,441.687 904.476,422.742 C911.14,404.684 904.503,389.168 899.634,377.391 C897.991,373.494 890.107,354.756 880.27,331.424 C832.494,311.511 767.518,284.201 767.518,284.201 L808.068,385.982 L709.437,426.261 C709.437,426.261 772.914,453.716 819.907,474.042 C844.977,463.503 865.614,454.773 870.208,452.631" fill="#8FC33F" id="Fill-21"/>
      <path d="M709.439,426.26 L709.034,520.386 C709.034,520.386 772.421,494.003 819.909,474.041 C772.911,453.719 709.439,426.26 709.439,426.26" fill="#208357" id="Fill-23"/>
      <path d="M928.972,351.5 C943.854,357.143 955.869,363.349 974.305,355.118 C991.891,347.261 998.335,331.682 1003.353,319.951 C1005.103,315.865 1013.973,295.219 1024.737,270.059 C1004.595,223.129 977.698,160.489 977.698,160.489 L933.234,260.47 L832.537,218.35 C832.537,218.35 860.374,284.266 880.273,331.426 C904.546,341.537 924.378,349.741 928.972,351.5" fill="#009ACC" id="Fill-25"/>
      <path d="M1071.82,160.342 L977.698,160.486 C977.698,160.486 1004.595,223.126 1024.737,270.061 C1044.91,223.077 1071.82,160.342 1071.82,160.342" fill="#D66A2D" id="Fill-27"/>
      <path d="M832.538,218.35 L767.518,284.203 C767.518,284.203 832.493,311.509 880.27,331.426 C860.375,284.262 832.538,218.35 832.538,218.35" fill="#424B8A" id="Fill-29"/>
      <path d="M1024.764,680.976 C1003.978,728.545 976.564,791.473 976.564,791.473 L1072.954,791.473 C1072.954,791.473 1045.522,728.545 1024.764,680.976" fill="#D66A2D" id="Fill-31"/>
    </g>
  </g>
</svg>
