<?xml version="1.0" encoding="UTF-8"?>
<svg width="2048px" height="1220px" viewBox="0 0 2048 1220" version="1.1" xmlns="http://www.w3.org/2000/svg" xmlns:xlink="http://www.w3.org/1999/xlink">
    <!-- Generator: Sketch 41.2 (35397) - http://www.bohemiancoding.com/sketch -->
    <title>learners-guild-logo-color</title>
    <desc>Created with Sketch.</desc>
    <defs></defs>
    <g id="Logo" stroke="none" stroke-width="1" fill="none" fill-rule="evenodd">
        <g id="learners-guild-logo-color">
            <g id="Horizontal-logo-Color" transform="translate(224.000000, 492.000000)">
                <g>
                    <g id="Group-2" transform="translate(105.000000, 16.000000)" fill="#1A1918">
                        <path d="M0.8916,41.2705 L3.2906,41.2705 C4.2386,41.2705 5.1226,40.1335 5.1226,39.3125 L5.1226,9.6975 C5.1226,8.8765 4.2386,7.7405 3.2906,7.7405 L0.8916,7.7405 L0.8916,2.3095 L20.9096,2.3095 L20.9096,7.7405 L14.9736,7.7405 L14.9736,40.8285 L27.9816,40.8285 L28.8656,31.7355 L35.3056,31.7355 L35.3056,46.5115 L0.8916,46.5115 L0.8916,41.2705 Z" id="Fill-1"></path>
                        <path d="M48.3784,26.4316 L61.3234,26.4316 C61.0074,20.6206 59.2394,18.3486 55.4504,18.3486 C51.5994,18.3486 49.0734,20.7476 48.3784,26.4316 L48.3784,26.4316 Z M48.2524,31.6716 C48.6314,38.2396 51.5354,41.2706 56.8404,41.2706 C60.9444,41.2706 62.3974,39.8176 64.1024,37.6706 L69.3424,37.6706 L69.3424,43.7326 C66.6284,45.3746 63.0284,46.9526 56.0824,46.9526 C44.5894,46.9526 38.8434,40.5126 38.8434,30.0936 C38.8434,19.4216 45.4734,12.8546 55.4504,12.8546 C65.3644,12.8546 70.5434,17.9066 70.5434,29.1466 C70.5434,30.2836 70.4164,31.3566 70.4164,31.6716 L48.2524,31.6716 Z" id="Fill-3"></path>
                        <path d="M93.2773,39.123 L93.2773,32.051 C91.8253,31.799 90.1833,31.672 88.4153,31.672 C84.6893,31.672 82.4173,33.187 82.4173,36.534 C82.4173,39.881 84.3743,41.46 87.4683,41.46 C89.8043,41.46 91.6993,40.576 93.2773,39.123 M73.4503,36.913 C73.4503,29.968 78.8813,26.81 86.5213,26.81 C89.2993,26.81 91.1943,27.062 93.2773,27.567 L93.2773,24.095 C93.2773,20.748 91.4463,19.17 87.5313,19.17 C83.5533,19.17 81.5323,20.685 79.8903,22.137 L75.6603,22.137 L75.6603,15.381 C78.7543,13.991 82.9223,12.854 89.3623,12.854 C97.9503,12.854 102.4973,15.634 102.4973,23.211 L102.4973,39.691 C102.4973,40.449 103.3183,41.27 104.0753,41.27 L105.8433,41.27 L105.8433,45.69 C104.5803,46.448 102.6863,46.953 100.2873,46.953 C96.4353,46.953 94.4773,45.438 93.6563,42.786 C91.1943,45.816 88.0993,46.89 84.0583,46.89 C77.8703,46.89 73.4503,43.48 73.4503,36.913" id="Fill-4"></path>
                        <path d="M108.3711,41.2705 L110.5821,41.2705 C111.3391,41.2705 112.1601,40.3865 112.1601,39.6915 L112.1601,20.6215 C112.1601,19.9265 111.3391,18.9165 110.5821,18.9165 L108.1191,18.9165 L108.1191,13.3595 L119.4221,13.3595 C120.4951,13.3595 121.1901,14.3075 121.3161,18.1595 C123.5261,15.4435 126.1161,13.0435 130.4731,13.0435 C131.1671,13.0435 131.8621,13.1705 132.4931,13.3595 L132.4931,20.1795 L130.9141,20.1795 C126.1161,20.1795 123.2101,21.1905 121.3801,22.2005 L121.3801,41.2705 L125.9891,41.2705 L125.9891,46.5115 L108.3711,46.5115 L108.3711,41.2705 Z" id="Fill-5"></path>
                        <path d="M135.2109,41.2705 L137.4209,41.2705 C138.1789,41.2705 139.0009,40.3865 139.0009,39.6915 L139.0009,20.6215 C139.0009,19.9265 138.1789,18.9165 137.4209,18.9165 L134.9589,18.9165 L134.9589,13.3595 L146.2619,13.3595 C147.3349,13.3595 147.9669,14.2445 148.1559,17.6545 C151.2499,14.7495 155.4819,12.8545 160.4689,12.8545 C165.0789,12.8545 169.0569,14.6855 169.0569,21.1265 L169.0569,39.6915 C169.0569,40.4495 169.8779,41.2705 170.6359,41.2705 L172.4039,41.2705 L172.4039,46.5115 L156.0489,46.5115 L156.0489,41.2705 L159.8389,41.2705 L159.8389,24.2845 C159.8389,21.0005 158.5749,20.0535 155.4819,20.0535 C152.8289,20.0535 150.3659,20.6215 148.2199,21.3165 L148.2199,41.2705 L152.0699,41.2705 L152.0699,46.5115 L135.2109,46.5115 L135.2109,41.2705 Z" id="Fill-6"></path>
                        <path d="M184.4053,26.4316 L197.3483,26.4316 C197.0333,20.6206 195.2653,18.3486 191.4773,18.3486 C187.6243,18.3486 185.0993,20.7476 184.4053,26.4316 L184.4053,26.4316 Z M184.2793,31.6716 C184.6563,38.2396 187.5613,41.2706 192.8663,41.2706 C196.9703,41.2706 198.4243,39.8176 200.1283,37.6706 L205.3693,37.6706 L205.3693,43.7326 C202.6533,45.3746 199.0533,46.9526 192.1073,46.9526 C180.6153,46.9526 174.8693,40.5126 174.8693,30.0936 C174.8693,19.4216 181.5003,12.8546 191.4773,12.8546 C201.3903,12.8546 206.5673,17.9066 206.5673,29.1466 C206.5673,30.2836 206.4423,31.3566 206.4423,31.6716 L184.2793,31.6716 Z" id="Fill-7"></path>
                        <path d="M209.2861,41.2705 L211.4961,41.2705 C212.2551,41.2705 213.0751,40.3865 213.0751,39.6915 L213.0751,20.6215 C213.0751,19.9265 212.2551,18.9165 211.4961,18.9165 L209.0341,18.9165 L209.0341,13.3595 L220.3371,13.3595 C221.4111,13.3595 222.1051,14.3075 222.2311,18.1595 C224.4401,15.4435 227.0311,13.0435 231.3881,13.0435 C232.0811,13.0435 232.7771,13.1705 233.4091,13.3595 L233.4091,20.1795 L231.8301,20.1795 C227.0311,20.1795 224.1261,21.1905 222.2941,22.2005 L222.2941,41.2705 L226.9041,41.2705 L226.9041,46.5115 L209.2861,46.5115 L209.2861,41.2705 Z" id="Fill-8"></path>
                        <path d="M235.7471,45.1221 L235.7471,37.6711 L241.0511,37.6711 C241.8091,40.0071 244.7761,41.4601 247.6821,41.4601 C251.2171,41.4601 253.3641,39.9441 253.3641,37.5451 C253.3641,35.0821 251.9131,34.0711 246.6081,33.3141 C239.4731,32.3041 236.1251,29.8411 236.1251,23.3371 C236.1251,16.7691 241.1781,12.9811 249.6381,12.9811 C254.8161,12.9811 258.3521,13.5491 261.0051,14.4341 L261.0051,21.7581 L255.8901,21.7581 C254.8161,19.8011 252.7961,18.5381 249.3231,18.5381 C245.9131,18.5381 244.0181,19.9271 244.0181,22.0111 C244.0181,24.0321 245.2201,25.2311 250.8391,26.0531 C258.8581,27.2521 262.1421,29.4621 262.1421,36.1561 C262.1421,42.6591 257.7851,46.8901 247.7441,46.8901 C241.7451,46.8901 238.4621,46.0061 235.7471,45.1221" id="Fill-9"></path>
                        <path d="M277.3623,24.5361 C277.3623,10.0761 285.9493,1.8051 299.3373,1.8051 C302.8733,1.8051 305.3363,2.1201 306.4093,2.3091 L313.6083,2.3091 L313.6083,16.2011 L307.0403,16.2011 L306.0303,9.3181 C304.5783,8.7501 302.3043,8.2451 299.3373,8.2451 C292.7063,8.2451 287.7163,12.9811 287.7163,24.1571 C287.7163,35.0821 291.5073,40.7651 298.5163,40.7651 C301.3573,40.7651 302.8733,40.5131 304.4513,40.0071 L304.4513,30.9141 L300.0933,30.9141 L300.0933,25.4831 L317.4603,25.4831 L317.4603,30.9141 L315.9433,30.9141 C314.9973,30.9141 314.1123,32.0511 314.1123,32.8721 L314.1123,46.5121 L308.9353,46.5121 C308.9353,46.5121 308.4293,45.1221 307.1663,45.1221 C304.7043,46.3221 302.2413,47.0161 298.0733,47.0161 C285.3813,47.0161 277.3623,38.9971 277.3623,24.5361" id="Fill-10"></path>
                        <path d="M323.3984,38.7441 L323.3984,20.4951 C323.3984,19.7371 322.5134,18.9171 321.8194,18.9171 L319.6724,18.9171 L319.6724,13.3591 L332.6174,13.3591 L332.6174,35.8401 C332.6174,39.4391 334.3844,40.4491 337.2904,40.4491 C339.6894,40.4491 342.2154,39.6911 344.2364,38.8711 L344.2364,18.9171 L339.8784,18.9171 L339.8784,13.3591 L353.4554,13.3591 L353.4554,39.5651 C353.4554,40.2601 354.2754,41.2701 355.0334,41.2701 L357.1804,41.2701 L357.1804,46.5121 L346.1924,46.5121 C345.1194,46.5121 344.5514,45.6901 344.2974,42.4071 C341.2684,45.2491 337.6044,46.9531 332.3004,46.9531 C327.6914,46.9531 323.3984,45.1851 323.3984,38.7441" id="Fill-11"></path>
                        <path d="M363.1816,5.9092 C363.1816,3.1932 365.3926,0.9832 368.1706,0.9832 C370.9496,0.9832 373.1596,3.1932 373.1596,5.9092 C373.1596,8.6242 370.9496,10.7712 368.1706,10.7712 C365.3926,10.7712 363.1816,8.6242 363.1816,5.9092 L363.1816,5.9092 Z M359.7076,41.2702 L362.1086,41.2702 C362.8666,41.2702 363.6236,40.3872 363.6236,39.6912 L363.6236,20.6212 C363.6236,19.9272 362.8666,18.9172 362.1086,18.9172 L359.4556,18.9172 L359.4556,13.3592 L371.3906,13.3592 C372.4026,13.3592 372.9066,14.3702 372.9066,16.8962 L372.9066,39.6912 C372.9066,40.4492 373.7266,41.2702 374.4846,41.2702 L376.8846,41.2702 L376.8846,46.5122 L359.7076,46.5122 L359.7076,41.2702 Z" id="Fill-12"></path>
                        <path d="M379.3477,41.2705 L381.8097,41.2705 C382.5687,41.2705 383.3887,40.3865 383.3887,39.6915 L383.3887,9.4455 C383.3887,8.7495 382.5687,7.7405 381.8097,7.7405 L379.1577,7.7405 L379.1577,2.3095 L391.0297,2.3095 C392.1027,2.3095 392.6087,3.0675 392.6087,4.4565 L392.6087,39.6915 C392.6087,40.4495 393.4927,41.2705 394.1867,41.2705 L396.7757,41.2705 L396.7757,46.5115 L379.3477,46.5115 L379.3477,41.2705 Z" id="Fill-13"></path>
                        <path d="M423.3613,38.8076 L423.3613,20.6206 C421.7193,19.8646 419.4473,19.1696 417.2363,19.1696 C412.8793,19.1696 408.9643,21.6956 408.9643,30.0936 C408.9643,39.1866 412.6893,41.4596 416.4783,41.4596 C419.3823,41.4596 421.5293,40.3866 423.3613,38.8076 M399.6183,30.3456 C399.6183,17.8436 407.4493,12.8546 413.8893,12.8546 C418.5003,12.8546 421.2153,14.5596 423.3613,17.1486 L423.3613,7.7406 L419.0673,7.7406 L419.0673,2.3096 L431.0023,2.3096 C432.0753,2.3096 432.5803,3.1296 432.5803,4.4556 L432.5803,39.5656 C432.5803,40.2596 433.4013,41.2706 434.1593,41.2706 L436.4323,41.2706 L436.4323,46.5116 L425.1933,46.5116 C424.2463,46.5116 423.6763,45.1216 423.4883,42.7866 C421.3403,45.2486 417.9943,47.0166 413.3843,47.0166 C406.7553,47.0166 399.6183,43.0376 399.6183,30.3456" id="Fill-14"></path>
                    </g>
                    <path d="M46.3633,79.8301 L51.6063,67.1801 L64.5043,72.1641 C64.5043,72.1641 61.0863,64.0341 58.5763,58.0211 C55.5313,56.8021 53.0723,55.8141 52.5713,55.6131 C51.0783,55.0141 49.1113,54.1951 46.8403,55.0601 C44.4603,55.9691 43.9383,57.5921 43.1123,59.4241 C42.8473,60.0121 41.6833,62.6711 40.2803,65.8841 C42.9033,71.8871 46.3633,79.8301 46.3633,79.8301" id="Fill-15" fill="#009ACC"></path>
                    <path d="M80.1289,45.6133 C80.1289,45.6133 72.1309,42.2833 66.1349,39.7623 C63.0239,41.1083 60.4829,42.2083 59.9739,42.4263 C58.4949,43.0623 56.5319,43.8833 55.5459,46.1043 C54.5129,48.4333 55.2989,49.9483 56.0179,51.8243 C56.2409,52.4083 57.2889,54.9373 58.5769,58.0213 C64.5949,60.4333 72.9029,63.7603 72.9029,63.7603 L67.5039,51.2573 L80.1289,45.6133 Z" id="Fill-16" fill="#8FC33F"></path>
                    <path d="M64.5039,72.1641 L72.9029,63.7611 C72.9029,63.7611 64.5949,60.4341 58.5769,58.0211 C61.0859,64.0341 64.5039,72.1641 64.5039,72.1641" id="Fill-17" fill="#424B8A"></path>
                    <path d="M56.0742,27.5645 C55.4582,29.0505 54.6212,31.0075 55.4632,33.2905 C56.3452,35.6795 57.9652,36.2165 59.7862,37.0625 C60.3662,37.3315 62.9722,38.4325 66.1352,39.7625 C72.0672,37.1985 80.0802,33.7325 80.0802,33.7325 L67.6302,28.6495 L72.7482,15.8025 C72.7482,15.8025 64.5482,19.2495 58.5172,21.7625 C57.2752,24.7065 56.2792,27.0725 56.0742,27.5645" id="Fill-18" fill="#DC3C59"></path>
                    <path d="M80.1289,45.6133 L80.0799,33.7323 C80.0799,33.7323 72.0669,37.1983 66.1349,39.7623 C72.1309,42.2833 80.1289,45.6133 80.1289,45.6133" id="Fill-19" fill="#208357"></path>
                    <path d="M42.9814,20.3154 C43.6134,21.7944 44.4294,23.7604 46.6484,24.7524 C48.9744,25.7914 50.4914,25.0084 52.3684,24.2954 C52.9514,24.0754 55.4534,23.0394 58.5174,21.7624 C61.0274,15.8084 64.5414,7.4914 64.5414,7.4914 L51.8314,12.8074 L46.2214,0.1694 C46.2214,0.1694 42.8234,8.0864 40.2784,14.0164 C41.6414,17.1904 42.7594,19.7974 42.9814,20.3154" id="Fill-20" fill="#EAB629"></path>
                    <path d="M72.748,15.8027 L64.541,7.4907 C64.541,7.4907 61.028,15.8087 58.518,21.7627 C64.548,19.2487 72.748,15.8027 72.748,15.8027" id="Fill-21" fill="#852044"></path>
                    <path d="M34.1963,79.8301 C34.1963,79.8301 37.6563,71.8871 40.2793,65.8841 C38.8753,62.6711 37.7123,60.0121 37.4473,59.4241 C36.6213,57.5921 36.1003,55.9691 33.7193,55.0601 C31.4473,54.1951 29.4823,55.0141 27.9893,55.6131 C27.4873,55.8141 25.0283,56.8021 21.9833,58.0211 C19.4733,64.0341 16.0553,72.1641 16.0553,72.1641 L28.9533,67.1801 L34.1963,79.8301 Z" id="Fill-22" fill="#EAB629"></path>
                    <path d="M24.542,51.8242 C25.261,49.9482 26.046,48.4332 25.013,46.1042 C24.028,43.8832 22.064,43.0622 20.585,42.4272 C20.077,42.2082 17.537,41.1082 14.424,39.7622 C8.429,42.2832 0.432,45.6132 0.432,45.6132 L13.056,51.2572 L7.656,63.7612 C7.656,63.7612 15.964,60.4332 21.983,58.0212 C23.271,54.9372 24.318,52.4082 24.542,51.8242" id="Fill-23" fill="#DC3C59"></path>
                    <path d="M7.6558,63.7607 L16.0558,72.1637 C16.0558,72.1637 19.4738,64.0337 21.9838,58.0217 C15.9638,60.4337 7.6558,63.7607 7.6558,63.7607" id="Fill-24" fill="#852044"></path>
                    <path d="M20.7734,37.0625 C22.5944,36.2165 24.2144,35.6795 25.0974,33.2905 C25.9394,31.0075 25.1024,29.0505 24.4854,27.5645 C24.2814,27.0725 23.2844,24.7065 22.0424,21.7625 C16.0124,19.2495 7.8114,15.8025 7.8114,15.8025 L12.9304,28.6495 L0.4804,33.7325 C0.4804,33.7325 8.4914,37.1985 14.4244,39.7625 C17.5864,38.4325 20.1924,37.3315 20.7734,37.0625" id="Fill-25" fill="#8FC33F"></path>
                    <path d="M0.4805,33.7324 L0.4315,45.6134 C0.4315,45.6134 8.4285,42.2834 14.4245,39.7624 C8.4915,37.1984 0.4805,33.7324 0.4805,33.7324" id="Fill-26" fill="#208357"></path>
                    <path d="M28.1914,24.2959 C30.0684,25.0089 31.5864,25.7909 33.9104,24.7519 C36.1304,23.7609 36.9454,21.7949 37.5784,20.3159 C37.7984,19.7979 38.9174,17.1929 40.2784,14.0169 C37.7344,8.0929 34.3394,0.1879 34.3394,0.1879 L28.7284,12.8079 L16.0184,7.4909 C16.0184,7.4909 19.5314,15.8089 22.0424,21.7629 C25.1054,23.0389 27.6084,24.0749 28.1914,24.2959" id="Fill-27" fill="#009ACC"></path>
                    <path d="M46.2212,0.1699 L34.3392,0.1879 C34.3392,0.1879 37.7342,8.0929 40.2782,14.0169 C42.8232,8.0859 46.2212,0.1699 46.2212,0.1699" id="Fill-28" fill="#D66A2D"></path>
                    <path d="M16.0186,7.4912 L7.8116,15.8032 C7.8116,15.8032 16.0126,19.2492 22.0416,21.7622 C19.5316,15.8082 16.0186,7.4912 16.0186,7.4912" id="Fill-29" fill="#424B8A"></path>
                    <path d="M40.2798,65.8838 C37.6558,71.8868 34.1968,79.8298 34.1968,79.8298 L46.3628,79.8298 C46.3628,79.8298 42.9028,71.8868 40.2798,65.8838" id="Fill-30" fill="#D66A2D"></path>
                </g>
            </g>
        </g>
    </g>
</svg>