<?xml version="1.0" encoding="UTF-8"?>
<!DOCTYPE svg PUBLIC "-//W3C//DTD SVG 1.1//EN" "http://www.w3.org/Graphics/SVG/1.1/DTD/svg11.dtd">
<svg version="1.1" xmlns="http://www.w3.org/2000/svg" xmlns:xlink="http://www.w3.org/1999/xlink" x="0" y="0" width="512" height="512" viewBox="0, 0, 512, 512">
  <g id="Layer_1">
    <path d="M78.153,408.502 L78.153,103.498 L121.072,103.498 L121.072,369.259 L265.436,369.259 L265.436,370.879 L301.186,370.879 L301.186,408.502 L78.153,408.502 z" fill="#808080"/>
    <path d="M433.847,384.134 Q404.995,396.651 378.902,403.015 Q352.808,409.379 328.412,409.379 Q301.894,409.379 278.346,402.909 Q254.798,396.439 234.857,383.286 Q218.309,372.466 205.369,358.465 Q192.428,344.464 183.412,328.022 Q174.396,311.581 169.729,293.019 Q165.062,274.456 165.062,254.515 Q165.062,239.665 168.138,224.921 Q171.214,210.177 177.154,196.494 Q183.094,182.811 191.792,170.4 Q200.489,157.99 211.521,147.383 Q235.281,124.259 264.769,113.44 Q294.257,102.621 330.533,102.621 Q355.566,102.621 380.281,108.455 Q404.995,114.289 431.301,126.381 L431.301,172.416 Q404.147,157.778 379.432,150.141 Q354.717,142.504 330.109,142.504 Q303.591,142.504 281.528,151.307 Q259.465,160.111 243.661,175.492 Q227.856,190.872 219.052,211.556 Q210.248,232.24 210.248,256 Q210.248,279.76 218.946,300.338 Q227.644,320.916 243.342,336.19 Q259.041,351.464 280.573,360.162 Q302.106,368.86 327.987,368.86 Q343.262,368.86 358.43,365.572 Q373.598,362.284 390.145,355.495 L390.145,298.004 L334.352,298.004 L334.352,258.546 L433.847,258.546 z" fill="#FFFFFF"/>
  </g>
</svg>
