<?xml version="1.0" encoding="UTF-8"?>
<!DOCTYPE svg PUBLIC "-//W3C//DTD SVG 1.1//EN" "http://www.w3.org/Graphics/SVG/1.1/DTD/svg11.dtd">
<svg version="1.1" xmlns="http://www.w3.org/2000/svg" xmlns:xlink="http://www.w3.org/1999/xlink" x="0" y="0" width="2048" height="1219.048" viewBox="0, 0, 2048, 1219.048">
  <g id="Image">
    <path d="M304.093,290.909 L335.307,290.909 L335.307,483.079 L440.299,483.079 L440.299,511.455 L304.093,511.455 z" fill="#000000"/>
    <path d="M462.089,290.909 L594.669,290.909 L594.669,318.97 L493.303,318.97 L493.303,385.811 L591.832,385.811 L591.832,414.345 L493.303,414.345 L493.303,483.079 L597.98,483.079 L597.98,511.455 L462.089,511.455 z" fill="#000000"/>
    <path d="M701.64,290.909 L724.657,290.909 L821.451,511.455 L788.818,511.455 L760.442,446.505 L666.485,446.505 L638.424,511.455 L606.107,511.455 z M747.515,418.129 L712.675,338.675 L678.782,418.129 z" fill="#000000"/>
    <path d="M900.309,386.442 Q922.38,386.442 933.336,378.008 Q944.292,369.574 944.292,351.918 Q944.292,333.315 933.415,325.512 Q922.537,317.708 900.309,317.708 L874.14,317.708 L874.14,386.442 z M842.453,290.909 L907.088,290.909 Q924.114,290.909 937.12,295.007 Q950.125,299.106 958.953,306.831 Q967.782,314.556 972.275,325.827 Q976.767,337.099 976.767,351.287 Q976.767,372.884 966.915,386.127 Q957.062,399.369 935.464,406.148 Q942.874,410.089 947.997,416.395 Q953.121,422.7 958.481,430.74 L1012.08,511.455 L973.93,511.455 L936.095,453.599 Q929.631,443.825 924.114,436.258 Q918.596,428.691 912.684,423.489 Q906.773,418.286 899.836,415.606 Q892.9,412.926 883.599,412.926 L874.14,412.926 L874.14,511.455 L842.453,511.455 z" fill="#000000"/>
    <path d="M1029.386,290.909 L1056.816,290.909 L1202.008,462.112 L1202.008,290.909 L1233.379,290.909 L1233.379,511.455 L1205.318,511.455 L1060.6,340.094 L1060.6,511.455 L1029.386,511.455 z" fill="#000000"/>
    <path d="M1276.452,290.909 L1409.032,290.909 L1409.032,318.97 L1307.666,318.97 L1307.666,385.811 L1406.194,385.811 L1406.194,414.345 L1307.666,414.345 L1307.666,483.079 L1412.343,483.079 L1412.343,511.455 L1276.452,511.455 z" fill="#000000"/>
    <path d="M1495.907,386.442 Q1517.978,386.442 1528.934,378.008 Q1539.891,369.574 1539.891,351.918 Q1539.891,333.315 1529.013,325.512 Q1518.135,317.708 1495.907,317.708 L1469.738,317.708 L1469.738,386.442 z M1438.051,290.909 L1502.686,290.909 Q1519.712,290.909 1532.718,295.007 Q1545.723,299.106 1554.552,306.831 Q1563.38,314.556 1567.873,325.827 Q1572.365,337.099 1572.365,351.287 Q1572.365,372.884 1562.513,386.127 Q1552.66,399.369 1531.062,406.148 Q1538.472,410.089 1543.595,416.395 Q1548.719,422.7 1554.079,430.74 L1607.678,511.455 L1569.528,511.455 L1531.693,453.599 Q1525.229,443.825 1519.712,436.258 Q1514.194,428.691 1508.282,423.489 Q1502.371,418.286 1495.434,415.606 Q1488.498,412.926 1479.197,412.926 L1469.738,412.926 L1469.738,511.455 L1438.051,511.455 z" fill="#000000"/>
    <path d="M1619.052,452.732 Q1626.146,460.772 1633.082,466.841 Q1640.018,472.911 1646.955,476.931 Q1653.891,480.951 1661.301,483 Q1668.71,485.049 1676.75,485.049 Q1693.46,485.049 1702.761,477.404 Q1712.063,469.758 1712.063,456.673 Q1712.063,449.737 1709.698,444.377 Q1707.333,439.017 1702.604,434.287 Q1697.875,429.558 1691.017,424.829 Q1684.159,420.099 1675.173,414.424 Q1661.301,405.438 1650.738,398.029 Q1640.176,390.62 1633.082,382.895 Q1625.988,375.17 1622.362,366.263 Q1618.736,357.356 1618.736,345.533 Q1618.736,332.921 1623.466,322.201 Q1628.195,311.481 1636.708,303.599 Q1645.221,295.717 1657.202,291.303 Q1669.183,286.889 1683.844,286.889 Q1696.771,286.889 1709.146,290.672 Q1721.521,294.456 1733.975,302.023 L1733.975,337.808 Q1720.26,326.931 1708.043,321.255 Q1695.825,315.58 1682.583,315.58 Q1675.016,315.58 1668.789,317.551 Q1662.562,319.521 1658.148,323.068 Q1653.734,326.615 1651.369,331.424 Q1649.004,336.232 1649.004,341.749 Q1649.004,348.213 1652.078,353.494 Q1655.152,358.775 1660.828,363.741 Q1666.503,368.707 1674.543,373.83 Q1682.583,378.954 1692.672,385.26 Q1704.811,392.827 1714.348,399.763 Q1723.886,406.699 1730.428,414.818 Q1736.971,422.937 1740.439,433.184 Q1743.907,443.431 1743.907,457.304 Q1743.907,469.6 1739.256,480.241 Q1734.606,490.882 1726.014,498.686 Q1717.422,506.489 1705.441,510.982 Q1693.46,515.475 1678.799,515.475 Q1661.301,515.475 1646.955,510.509 Q1632.609,505.543 1619.052,494.35 z" fill="#000000"/>
    <path d="M612.779,901.559 Q577.808,916.73 546.179,924.445 Q514.551,932.159 484.979,932.159 Q452.837,932.159 424.294,924.316 Q395.751,916.473 371.579,900.53 Q351.522,887.416 335.837,870.445 Q320.151,853.473 309.222,833.545 Q298.294,813.616 292.637,791.116 Q286.979,768.616 286.979,744.445 Q286.979,726.445 290.708,708.573 Q294.437,690.702 301.637,674.116 Q308.837,657.53 319.379,642.488 Q329.922,627.445 343.294,614.588 Q372.094,586.559 407.837,573.445 Q443.579,560.33 487.551,560.33 Q517.894,560.33 547.851,567.402 Q577.808,574.473 609.694,589.13 L609.694,644.93 Q576.779,627.188 546.822,617.93 Q516.865,608.673 487.037,608.673 Q454.894,608.673 428.151,619.345 Q401.408,630.016 382.251,648.659 Q363.094,667.302 352.422,692.373 Q341.751,717.445 341.751,746.245 Q341.751,775.045 352.294,799.988 Q362.837,824.93 381.865,843.445 Q400.894,861.959 426.994,872.502 Q453.094,883.045 484.465,883.045 Q502.979,883.045 521.365,879.059 Q539.751,875.073 559.808,866.845 L559.808,797.159 L492.179,797.159 L492.179,749.33 L612.779,749.33 z" fill="#000000"/>
    <path d="M728.237,560.33 L728.237,766.816 Q728.237,778.902 728.622,789.316 Q729.008,799.73 730.551,808.859 Q732.094,817.987 735.308,825.83 Q738.522,833.673 744.437,840.616 Q776.322,877.902 831.865,877.902 Q855.265,877.902 874.551,871.473 Q893.837,865.045 907.337,853.473 Q920.837,841.902 928.294,825.702 Q935.751,809.502 935.751,789.959 L935.751,560.33 L986.922,560.33 L986.922,791.502 Q986.922,821.33 975.737,846.145 Q964.551,870.959 944.237,888.83 Q923.922,906.702 895.251,916.602 Q866.579,926.502 831.865,926.502 Q790.208,926.502 757.679,911.973 Q725.151,897.445 702.522,869.416 Q693.265,858.359 688.251,846.788 Q683.237,835.216 680.665,822.873 Q678.094,810.53 677.579,797.159 Q677.065,783.788 677.065,768.873 L677.065,560.33 z" fill="#000000"/>
    <path d="M1063.808,560.33 L1115.237,560.33 L1115.237,920.073 L1063.808,920.073 z" fill="#000000"/>
    <path d="M1179.211,560.33 L1230.125,560.33 L1230.125,873.788 L1401.383,873.788 L1401.383,920.073 L1179.211,920.073 z" fill="#000000"/>
    <path d="M1563.535,560.33 Q1599.278,560.33 1628.849,567.016 Q1658.421,573.702 1684.649,591.445 Q1721.164,616.13 1741.092,654.573 Q1761.021,693.016 1761.021,740.073 Q1761.021,763.216 1755.878,784.816 Q1750.735,806.416 1740.964,825.445 Q1731.192,844.473 1716.921,860.545 Q1702.649,876.616 1684.649,888.959 Q1659.449,906.445 1629.621,913.259 Q1599.792,920.073 1563.535,920.073 L1431.364,920.073 L1431.364,560.33 z M1482.278,609.445 L1482.278,871.216 L1563.535,871.216 Q1597.735,871.216 1624.349,861.83 Q1650.964,852.445 1669.221,835.345 Q1687.478,818.245 1696.864,794.073 Q1706.249,769.902 1706.249,740.588 Q1706.249,711.016 1696.864,686.845 Q1687.478,662.673 1669.221,645.445 Q1650.964,628.216 1624.349,618.83 Q1597.735,609.445 1563.535,609.445 z" fill="#000000"/>
  </g>
</svg>
