<?xml version="1.0" encoding="UTF-8"?>
<svg width="2048px" height="1220px" viewBox="0 0 2048 1220" version="1.1" xmlns="http://www.w3.org/2000/svg" xmlns:xlink="http://www.w3.org/1999/xlink">
    <!-- Generator: Sketch 41.2 (35397) - http://www.bohemiancoding.com/sketch -->
    <title>learners-guild-logo-black</title>
    <desc>Created with Sketch.</desc>
    <defs></defs>
    <g id="Logo" stroke="none" stroke-width="1" fill="none" fill-rule="evenodd">
        <g id="learners-guild-logo-black">
            <g id="HorizontalLogo-B&amp;W-Dark" transform="translate(224.000000, 492.000000)">
                <g id="Horizontal-logo-B&amp;W">
                    <path d="M106.3916,57.2705 L108.7906,57.2705 C109.7386,57.2705 110.6226,56.1335 110.6226,55.3125 L110.6226,25.6975 C110.6226,24.8765 109.7386,23.7405 108.7906,23.7405 L106.3916,23.7405 L106.3916,18.3095 L126.4096,18.3095 L126.4096,23.7405 L120.4736,23.7405 L120.4736,56.8285 L133.4816,56.8285 L134.3656,47.7355 L140.8056,47.7355 L140.8056,62.5115 L106.3916,62.5115 L106.3916,57.2705 Z" id="Fill-1" fill="#1A1918"></path>
                    <path d="M153.8784,42.4316 L166.8234,42.4316 C166.5074,36.6216 164.7394,34.3486 160.9504,34.3486 C157.0994,34.3486 154.5734,36.7476 153.8784,42.4316 L153.8784,42.4316 Z M153.7524,47.6716 C154.1314,54.2406 157.0354,57.2706 162.3404,57.2706 C166.4444,57.2706 167.8974,55.8186 169.6024,53.6706 L174.8424,53.6706 L174.8424,59.7326 C172.1284,61.3746 168.5284,62.9526 161.5824,62.9526 C150.0894,62.9526 144.3434,56.5126 144.3434,46.0936 C144.3434,35.4216 150.9734,28.8546 160.9504,28.8546 C170.8644,28.8546 176.0434,33.9066 176.0434,45.1466 C176.0434,46.2836 175.9164,47.3566 175.9164,47.6716 L153.7524,47.6716 Z" id="Fill-3" fill="#1A1918"></path>
                    <path d="M198.7773,55.123 L198.7773,48.051 C197.3253,47.799 195.6833,47.672 193.9153,47.672 C190.1893,47.672 187.9173,49.187 187.9173,52.535 C187.9173,55.881 189.8743,57.46 192.9683,57.46 C195.3043,57.46 197.1993,56.576 198.7773,55.123 M178.9503,52.914 C178.9503,45.968 184.3813,42.81 192.0213,42.81 C194.7993,42.81 196.6943,43.062 198.7773,43.567 L198.7773,40.095 C198.7773,36.748 196.9463,35.17 193.0313,35.17 C189.0533,35.17 187.0323,36.685 185.3903,38.137 L181.1603,38.137 L181.1603,31.381 C184.2543,29.992 188.4223,28.855 194.8623,28.855 C203.4503,28.855 207.9973,31.634 207.9973,39.211 L207.9973,55.691 C207.9973,56.449 208.8183,57.27 209.5753,57.27 L211.3433,57.27 L211.3433,61.69 C210.0803,62.449 208.1863,62.953 205.7873,62.953 C201.9353,62.953 199.9773,61.438 199.1563,58.786 C196.6943,61.816 193.5993,62.891 189.5583,62.891 C183.3703,62.891 178.9503,59.48 178.9503,52.914" id="Fill-5" fill="#1A1918"></path>
                    <path d="M213.8711,57.2705 L216.0821,57.2705 C216.8391,57.2705 217.6601,56.3865 217.6601,55.6915 L217.6601,36.6215 C217.6601,35.9275 216.8391,34.9165 216.0821,34.9165 L213.6191,34.9165 L213.6191,29.3595 L224.9221,29.3595 C225.9951,29.3595 226.6901,30.3075 226.8161,34.1595 C229.0261,31.4435 231.6161,29.0445 235.9731,29.0445 C236.6671,29.0445 237.3621,29.1705 237.9931,29.3595 L237.9931,36.1805 L236.4141,36.1805 C231.6161,36.1805 228.7101,37.1905 226.8801,38.2005 L226.8801,57.2705 L231.4891,57.2705 L231.4891,62.5115 L213.8711,62.5115 L213.8711,57.2705 Z" id="Fill-7" fill="#1A1918"></path>
                    <path d="M240.7109,57.2705 L242.9209,57.2705 C243.6789,57.2705 244.5009,56.3865 244.5009,55.6915 L244.5009,36.6215 C244.5009,35.9275 243.6789,34.9165 242.9209,34.9165 L240.4589,34.9165 L240.4589,29.3595 L251.7619,29.3595 C252.8349,29.3595 253.4669,30.2445 253.6559,33.6545 C256.7499,30.7495 260.9819,28.8545 265.9689,28.8545 C270.5789,28.8545 274.5569,30.6865 274.5569,37.1265 L274.5569,55.6915 C274.5569,56.4495 275.3779,57.2705 276.1359,57.2705 L277.9039,57.2705 L277.9039,62.5115 L261.5489,62.5115 L261.5489,57.2705 L265.3389,57.2705 L265.3389,40.2845 C265.3389,37.0005 264.0749,36.0535 260.9819,36.0535 C258.3289,36.0535 255.8659,36.6215 253.7199,37.3165 L253.7199,57.2705 L257.5699,57.2705 L257.5699,62.5115 L240.7109,62.5115 L240.7109,57.2705 Z" id="Fill-9" fill="#1A1918"></path>
                    <path d="M289.9053,42.4316 L302.8483,42.4316 C302.5333,36.6216 300.7653,34.3486 296.9773,34.3486 C293.1243,34.3486 290.5993,36.7476 289.9053,42.4316 L289.9053,42.4316 Z M289.7793,47.6716 C290.1563,54.2406 293.0613,57.2706 298.3663,57.2706 C302.4703,57.2706 303.9243,55.8186 305.6283,53.6706 L310.8693,53.6706 L310.8693,59.7326 C308.1533,61.3746 304.5533,62.9526 297.6073,62.9526 C286.1153,62.9526 280.3693,56.5126 280.3693,46.0936 C280.3693,35.4216 287.0003,28.8546 296.9773,28.8546 C306.8903,28.8546 312.0673,33.9066 312.0673,45.1466 C312.0673,46.2836 311.9423,47.3566 311.9423,47.6716 L289.7793,47.6716 Z" id="Fill-11" fill="#1A1918"></path>
                    <path d="M314.7861,57.2705 L316.9961,57.2705 C317.7551,57.2705 318.5751,56.3865 318.5751,55.6915 L318.5751,36.6215 C318.5751,35.9275 317.7551,34.9165 316.9961,34.9165 L314.5341,34.9165 L314.5341,29.3595 L325.8371,29.3595 C326.9111,29.3595 327.6051,30.3075 327.7311,34.1595 C329.9401,31.4435 332.5311,29.0445 336.8881,29.0445 C337.5811,29.0445 338.2771,29.1705 338.9091,29.3595 L338.9091,36.1805 L337.3301,36.1805 C332.5311,36.1805 329.6261,37.1905 327.7941,38.2005 L327.7941,57.2705 L332.4041,57.2705 L332.4041,62.5115 L314.7861,62.5115 L314.7861,57.2705 Z" id="Fill-13" fill="#1A1918"></path>
                    <path d="M341.2471,61.123 L341.2471,53.671 L346.5511,53.671 C347.3091,56.008 350.2761,57.46 353.1821,57.46 C356.7171,57.46 358.8641,55.944 358.8641,53.545 C358.8641,51.082 357.4131,50.072 352.1081,49.314 C344.9731,48.305 341.6251,45.842 341.6251,39.337 C341.6251,32.77 346.6781,28.981 355.1381,28.981 C360.3161,28.981 363.8521,29.549 366.5051,30.434 L366.5051,37.758 L361.3901,37.758 C360.3161,35.801 358.2961,34.538 354.8231,34.538 C351.4131,34.538 349.5181,35.927 349.5181,38.011 C349.5181,40.032 350.7201,41.232 356.3391,42.053 C364.3581,43.252 367.6421,45.463 367.6421,52.156 C367.6421,58.66 363.2851,62.891 353.2441,62.891 C347.2451,62.891 343.9621,62.006 341.2471,61.123" id="Fill-15" fill="#1A1918"></path>
                    <path d="M382.8623,40.5366 C382.8623,26.0766 391.4493,17.8046 404.8373,17.8046 C408.3733,17.8046 410.8363,18.1196 411.9093,18.3096 L419.1083,18.3096 L419.1083,32.2016 L412.5403,32.2016 L411.5303,25.3186 C410.0783,24.7506 407.8043,24.2456 404.8373,24.2456 C398.2063,24.2456 393.2163,28.9816 393.2163,40.1576 C393.2163,51.0816 397.0073,56.7656 404.0163,56.7656 C406.8573,56.7656 408.3733,56.5126 409.9513,56.0076 L409.9513,46.9136 L405.5933,46.9136 L405.5933,41.4846 L422.9603,41.4846 L422.9603,46.9136 L421.4433,46.9136 C420.4973,46.9136 419.6123,48.0506 419.6123,48.8716 L419.6123,62.5116 L414.4353,62.5116 C414.4353,62.5116 413.9293,61.1226 412.6663,61.1226 C410.2043,62.3226 407.7413,63.0166 403.5733,63.0166 C390.8813,63.0166 382.8623,54.9966 382.8623,40.5366" id="Fill-17" fill="#1A1918"></path>
                    <path d="M428.8984,54.7441 L428.8984,36.4951 C428.8984,35.7381 428.0134,34.9171 427.3194,34.9171 L425.1724,34.9171 L425.1724,29.3601 L438.1174,29.3601 L438.1174,51.8401 C438.1174,55.4391 439.8844,56.4491 442.7904,56.4491 C445.1894,56.4491 447.7154,55.6911 449.7364,54.8711 L449.7364,34.9171 L445.3784,34.9171 L445.3784,29.3601 L458.9554,29.3601 L458.9554,55.5661 C458.9554,56.2601 459.7754,57.2701 460.5334,57.2701 L462.6804,57.2701 L462.6804,62.5121 L451.6924,62.5121 C450.6194,62.5121 450.0514,61.6901 449.7974,58.4071 C446.7684,61.2491 443.1044,62.9531 437.8004,62.9531 C433.1914,62.9531 428.8984,61.1851 428.8984,54.7441" id="Fill-19" fill="#1A1918"></path>
                    <path d="M468.6816,21.9092 C468.6816,19.1942 470.8926,16.9842 473.6706,16.9842 C476.4496,16.9842 478.6596,19.1942 478.6596,21.9092 C478.6596,24.6242 476.4496,26.7712 473.6706,26.7712 C470.8926,26.7712 468.6816,24.6242 468.6816,21.9092 L468.6816,21.9092 Z M465.2076,57.2702 L467.6086,57.2702 C468.3666,57.2702 469.1236,56.3872 469.1236,55.6912 L469.1236,36.6212 C469.1236,35.9272 468.3666,34.9172 467.6086,34.9172 L464.9556,34.9172 L464.9556,29.3602 L476.8906,29.3602 C477.9026,29.3602 478.4066,30.3702 478.4066,32.8962 L478.4066,55.6912 C478.4066,56.4492 479.2266,57.2702 479.9846,57.2702 L482.3846,57.2702 L482.3846,62.5122 L465.2076,62.5122 L465.2076,57.2702 Z" id="Fill-21" fill="#1A1918"></path>
                    <path d="M484.8477,57.2705 L487.3097,57.2705 C488.0687,57.2705 488.8887,56.3865 488.8887,55.6915 L488.8887,25.4455 C488.8887,24.7505 488.0687,23.7405 487.3097,23.7405 L484.6577,23.7405 L484.6577,18.3095 L496.5297,18.3095 C497.6027,18.3095 498.1087,19.0675 498.1087,20.4565 L498.1087,55.6915 C498.1087,56.4495 498.9927,57.2705 499.6867,57.2705 L502.2757,57.2705 L502.2757,62.5115 L484.8477,62.5115 L484.8477,57.2705 Z" id="Fill-23" fill="#1A1918"></path>
                    <path d="M528.8613,54.8076 L528.8613,36.6216 C527.2193,35.8646 524.9473,35.1696 522.7363,35.1696 C518.3793,35.1696 514.4643,37.6956 514.4643,46.0936 C514.4643,55.1876 518.1893,57.4596 521.9783,57.4596 C524.8823,57.4596 527.0293,56.3866 528.8613,54.8076 M505.1183,46.3456 C505.1183,33.8436 512.9493,28.8546 519.3893,28.8546 C524.0003,28.8546 526.7153,30.5596 528.8613,33.1486 L528.8613,23.7406 L524.5673,23.7406 L524.5673,18.3096 L536.5023,18.3096 C537.5753,18.3096 538.0803,19.1306 538.0803,20.4566 L538.0803,55.5666 C538.0803,56.2596 538.9013,57.2706 539.6593,57.2706 L541.9323,57.2706 L541.9323,62.5116 L530.6933,62.5116 C529.7463,62.5116 529.1763,61.1226 528.9883,58.7866 C526.8403,61.2486 523.4943,63.0166 518.8843,63.0166 C512.2553,63.0166 505.1183,59.0386 505.1183,46.3456" id="Fill-25" fill="#1A1918"></path>
                    <path d="M46.8633,79.8301 L52.1063,67.1801 L65.0043,72.1641 C65.0043,72.1641 61.5863,64.0341 59.0763,58.0211 C56.0313,56.8021 53.5723,55.8141 53.0713,55.6131 C51.5783,55.0141 49.6113,54.1951 47.3403,55.0601 C44.9603,55.9691 44.4383,57.5921 43.6123,59.4241 C43.3473,60.0121 42.1833,62.6721 40.7803,65.8841 C43.4033,71.8871 46.8633,79.8301 46.8633,79.8301" id="Fill-27" fill="#909190"></path>
                    <path d="M80.6289,45.6133 C80.6289,45.6133 72.6309,42.2833 66.6349,39.7623 C63.5239,41.1093 60.9829,42.2083 60.4739,42.4263 C58.9949,43.0623 57.0319,43.8833 56.0459,46.1043 C55.0129,48.4333 55.7989,49.9493 56.5179,51.8243 C56.7409,52.4083 57.7889,54.9373 59.0769,58.0213 C65.0949,60.4333 73.4029,63.7613 73.4029,63.7613 L68.0039,51.2583 L80.6289,45.6133 Z" id="Fill-29" fill="#909190"></path>
                    <path d="M65.0039,72.1641 L73.4029,63.7621 C73.4029,63.7621 65.0949,60.4341 59.0769,58.0211 C61.5859,64.0341 65.0039,72.1641 65.0039,72.1641" id="Fill-31" fill="#616260"></path>
                    <path d="M56.5742,27.5649 C55.9582,29.0509 55.1212,31.0079 55.9632,33.2899 C56.8452,35.6799 58.4652,36.2169 60.2862,37.0629 C60.8662,37.3309 63.4722,38.4329 66.6352,39.7629 C72.5672,37.1979 80.5802,33.7319 80.5802,33.7319 L68.1302,28.6499 L73.2482,15.8029 C73.2482,15.8029 65.0482,19.2499 59.0172,21.7629 C57.7752,24.7059 56.7792,27.0719 56.5742,27.5649" id="Fill-33" fill="#909190"></path>
                    <path d="M80.6289,45.6133 L80.5799,33.7323 C80.5799,33.7323 72.5669,37.1983 66.6349,39.7623 C72.6309,42.2833 80.6289,45.6133 80.6289,45.6133" id="Fill-35" fill="#616260"></path>
                    <path d="M43.4814,20.3159 C44.1134,21.7949 44.9294,23.7609 47.1484,24.7529 C49.4744,25.7919 50.9914,25.0089 52.8684,24.2959 C53.4514,24.0759 55.9534,23.0389 59.0174,21.7629 C61.5274,15.8089 65.0414,7.4909 65.0414,7.4909 L52.3314,12.8079 L46.7214,0.1699 C46.7214,0.1699 43.3234,8.0859 40.7784,14.0169 C42.1414,17.1909 43.2594,19.7979 43.4814,20.3159" id="Fill-37" fill="#909190"></path>
                    <path d="M73.248,15.8032 L65.041,7.4912 C65.041,7.4912 61.528,15.8092 59.018,21.7632 C65.048,19.2492 73.248,15.8032 73.248,15.8032" id="Fill-39" fill="#616260"></path>
                    <path d="M34.6963,79.8301 C34.6963,79.8301 38.1563,71.8871 40.7793,65.8841 C39.3753,62.6721 38.2123,60.0121 37.9473,59.4241 C37.1213,57.5921 36.6003,55.9691 34.2193,55.0601 C31.9473,54.1951 29.9823,55.0141 28.4893,55.6131 C27.9873,55.8141 25.5283,56.8021 22.4833,58.0211 C19.9733,64.0341 16.5553,72.1641 16.5553,72.1641 L29.4533,67.1801 L34.6963,79.8301 Z" id="Fill-41" fill="#909190"></path>
                    <path d="M25.042,51.8242 C25.761,49.9492 26.546,48.4332 25.513,46.1042 C24.528,43.8832 22.564,43.0622 21.085,42.4272 C20.577,42.2082 18.037,41.1092 14.924,39.7622 C8.929,42.2832 0.932,45.6132 0.932,45.6132 L13.556,51.2582 L8.156,63.7622 C8.156,63.7622 16.464,60.4332 22.483,58.0212 C23.771,54.9372 24.818,52.4082 25.042,51.8242" id="Fill-43" fill="#909190"></path>
                    <path d="M8.1558,63.7617 L16.5558,72.1637 C16.5558,72.1637 19.9738,64.0337 22.4838,58.0217 C16.4638,60.4337 8.1558,63.7617 8.1558,63.7617" id="Fill-45" fill="#616260"></path>
                    <path d="M21.2734,37.063 C23.0944,36.217 24.7144,35.68 25.5974,33.29 C26.4394,31.008 25.6024,29.051 24.9854,27.565 C24.7814,27.072 23.7844,24.706 22.5424,21.763 C16.5124,19.25 8.3114,15.803 8.3114,15.803 L13.4304,28.65 L0.9804,33.732 C0.9804,33.732 8.9914,37.198 14.9244,39.763 C18.0864,38.433 20.6924,37.331 21.2734,37.063" id="Fill-47" fill="#909190"></path>
                    <path d="M0.9805,33.7324 L0.9315,45.6134 C0.9315,45.6134 8.9285,42.2834 14.9245,39.7624 C8.9915,37.1984 0.9805,33.7324 0.9805,33.7324" id="Fill-49" fill="#616260"></path>
                    <path d="M28.6914,24.2964 C30.5684,25.0084 32.0864,25.7914 34.4104,24.7524 C36.6304,23.7614 37.4454,21.7954 38.0784,20.3164 C38.2984,19.7984 39.4174,17.1934 40.7784,14.0164 C38.2344,8.0934 34.8394,0.1874 34.8394,0.1874 L29.2284,12.8074 L16.5184,7.4914 C16.5184,7.4914 20.0314,15.8094 22.5424,21.7634 C25.6054,23.0394 28.1084,24.0754 28.6914,24.2964" id="Fill-51" fill="#909190"></path>
                    <path d="M46.7212,0.1699 L34.8392,0.1879 C34.8392,0.1879 38.2342,8.0929 40.7782,14.0169 C43.3232,8.0859 46.7212,0.1699 46.7212,0.1699" id="Fill-53" fill="#616260"></path>
                    <path d="M16.5186,7.4912 L8.3116,15.8032 C8.3116,15.8032 16.5126,19.2492 22.5416,21.7632 C20.0316,15.8092 16.5186,7.4912 16.5186,7.4912" id="Fill-55" fill="#616260"></path>
                    <path d="M40.7798,65.8838 C38.1558,71.8868 34.6968,79.8298 34.6968,79.8298 L46.8628,79.8298 C46.8628,79.8298 43.4028,71.8868 40.7798,65.8838" id="Fill-57" fill="#616260"></path>
                </g>
            </g>
        </g>
    </g>
</svg>