<?xml version="1.0" encoding="UTF-8"?>
<!DOCTYPE svg PUBLIC "-//W3C//DTD SVG 1.1//EN" "http://www.w3.org/Graphics/SVG/1.1/DTD/svg11.dtd">
<svg version="1.1" xmlns="http://www.w3.org/2000/svg" xmlns:xlink="http://www.w3.org/1999/xlink" x="0" y="0" width="512" height="512" viewBox="0, 0, 512, 512">
  <g id="Icon">
    <path d="M287.127,459.828 L313.959,395.09 L379.967,420.602 C379.967,420.602 362.475,378.996 349.63,348.227 C334.052,341.985 321.464,336.938 318.899,335.903 C311.259,332.829 301.196,328.653 289.575,333.079 C277.39,337.72 274.722,346.036 270.495,355.401 C269.142,358.411 263.182,372.016 256.001,388.46 C269.42,419.182 287.127,459.828 287.127,459.828" fill="#C2C3C1" id="Fill-2"/>
    <path d="M459.919,284.73 C459.919,284.73 418.995,267.684 388.316,254.791 C372.385,261.679 359.387,267.299 356.785,268.419 C349.218,271.675 339.166,275.876 334.122,287.247 C328.836,299.163 332.863,306.914 336.532,316.509 C337.68,319.508 343.043,332.444 349.63,348.227 C380.433,360.568 422.946,377.596 422.946,377.596 L395.317,313.614 L459.919,284.73 z" fill="#C2C3C1" id="Fill-4"/>
    <path d="M379.967,420.602 L422.947,377.596 C422.947,377.596 380.433,360.568 349.631,348.227 C362.473,378.994 379.967,420.602 379.967,420.602" fill="#FFFFFF" id="Fill-6"/>
    <path d="M336.826,192.366 C333.669,199.972 329.391,209.992 333.696,221.658 C338.212,233.892 346.498,236.644 355.82,240.964 C358.788,242.341 372.125,247.989 388.315,254.793 C418.669,241.665 459.666,223.928 459.666,223.928 L395.96,197.917 L422.154,132.178 C422.154,132.178 380.183,149.813 349.324,162.674 C342.97,177.743 337.872,189.849 336.826,192.366" fill="#C2C3C1" id="Fill-8"/>
    <path d="M459.919,284.73 L459.666,223.928 C459.666,223.928 418.668,241.665 388.317,254.791 C418.995,267.684 459.919,284.73 459.919,284.73" fill="#FFFFFF" id="Fill-10"/>
    <path d="M269.824,155.265 C273.061,162.839 277.236,172.903 288.591,177.974 C300.495,183.291 308.257,179.287 317.86,175.644 C320.844,174.509 333.652,169.207 349.326,162.674 C362.172,132.213 380.155,89.637 380.155,89.637 L315.115,116.849 L286.4,52.172 C286.4,52.172 269.012,92.691 255.997,123.042 C262.97,139.287 268.693,152.624 269.824,155.265" fill="#C2C3C1" id="Fill-12"/>
    <path d="M422.154,132.178 L380.153,89.638 C380.153,89.638 362.172,132.214 349.324,162.675 C380.184,149.814 422.154,132.178 422.154,132.178" fill="#FFFFFF" id="Fill-14"/>
    <path d="M224.874,459.828 C224.874,459.828 242.58,419.182 255.999,388.46 C248.818,372.016 242.862,358.411 241.506,355.401 C237.278,346.036 234.61,337.72 222.425,333.079 C210.804,328.653 200.741,332.829 193.101,335.903 C190.537,336.938 177.948,341.985 162.37,348.227 C149.53,378.996 132.033,420.602 132.033,420.602 L198.041,395.09 L224.874,459.828 z" fill="#C2C3C1" id="Fill-16"/>
    <path d="M175.468,316.51 C179.138,306.914 183.164,299.164 177.879,287.248 C172.834,275.876 162.782,271.675 155.215,268.419 C152.613,267.299 139.615,261.68 123.684,254.791 C93.005,267.684 52.081,284.73 52.081,284.73 L116.683,313.614 L89.054,377.596 C89.054,377.596 131.568,360.568 162.37,348.227 C168.958,332.443 174.32,319.508 175.468,316.51" fill="#C2C3C1" id="Fill-18"/>
    <path d="M89.053,377.597 L132.033,420.603 C132.033,420.603 149.531,378.995 162.37,348.228 C131.567,360.568 89.053,377.597 89.053,377.597" fill="#FFFFFF" id="Fill-20"/>
    <path d="M156.18,240.964 C165.501,236.645 173.787,233.89 178.304,221.659 C182.609,209.993 178.33,199.973 175.174,192.367 C174.133,189.849 169.032,177.743 162.675,162.675 C131.816,149.813 89.845,132.178 89.845,132.178 L116.041,197.917 L52.333,223.928 C52.333,223.928 93.333,241.665 123.684,254.791 C139.875,247.988 153.211,242.34 156.18,240.964" fill="#C2C3C1" id="Fill-22"/>
    <path d="M52.334,223.928 L52.081,284.729 C52.081,284.729 93.005,267.684 123.685,254.793 C93.332,241.665 52.334,223.928 52.334,223.928" fill="#FFFFFF" id="Fill-24"/>
    <path d="M194.14,175.643 C203.743,179.287 211.504,183.291 223.409,177.973 C234.763,172.902 238.94,162.841 242.176,155.265 C243.307,152.625 249.024,139.289 255.997,123.042 C242.976,92.722 225.6,52.266 225.6,52.266 L196.885,116.849 L131.847,89.639 C131.847,89.639 149.828,132.215 162.676,162.675 C178.349,169.206 191.156,174.509 194.14,175.643" fill="#C2C3C1" id="Fill-26"/>
    <path d="M286.4,52.173 L225.601,52.267 C225.601,52.267 242.977,92.723 255.996,123.041 C269.013,92.691 286.4,52.173 286.4,52.173" fill="#FFFFFF" id="Fill-28"/>
    <path d="M131.846,89.638 L89.845,132.178 C89.845,132.178 131.816,149.813 162.675,162.674 C149.827,132.214 131.846,89.638 131.846,89.638" fill="#FFFFFF" id="Fill-30"/>
    <path d="M256,388.459 C242.579,419.183 224.874,459.827 224.874,459.827 L287.126,459.827 C287.126,459.827 269.421,419.183 256,388.459" fill="#FFFFFF" id="Fill-32"/>
  </g>
</svg>
