<?xml version="1.0" encoding="UTF-8"?>
<svg width="2048px" height="1220px" viewBox="0 0 2048 1220" version="1.1" xmlns="http://www.w3.org/2000/svg" xmlns:xlink="http://www.w3.org/1999/xlink">
    <!-- Generator: Sketch 41.2 (35397) - http://www.bohemiancoding.com/sketch -->
    <title>learners-guild-logo-black</title>
    <desc>Created with Sketch.</desc>
    <defs></defs>
    <g id="Logo" stroke="none" stroke-width="1" fill="none" fill-rule="evenodd">
        <g id="learners-guild-logo-black">
            <g id="Vertical-logo-B&amp;W-Dark" transform="translate(224.000000, 137.000000)">
                <g id="Vertical-logo-Color" transform="translate(0.000000, 163.000000)" fill="#1A1918">
                    <path d="M0.5632561,37 L28.4700356,37 L28.4700356,25.0180066 L23.2471154,25.0180066 L22.530244,32.391541 L11.9819934,32.391541 L11.9819934,5.5600686 L16.7952728,5.5600686 L16.7952728,1.15643 L0.5632561,1.15643 L0.5632561,5.5600686 L2.5090499,5.5600686 C3.2771264,5.5600686 3.9939978,6.4817604 3.9939978,7.1474267 L3.9939978,31.1626186 C3.9939978,31.8282849 3.2771264,32.7499767 2.5090499,32.7499767 L0.5632561,32.7499767 L0.5632561,37 Z M56.34761,24.9668015 C56.34761,24.710776 56.4500202,23.8402893 56.4500202,22.9185975 C56.4500202,13.8040897 52.251202,9.7076817 44.2120013,9.7076817 C36.1215955,9.7076817 30.74506,15.0330121 30.74506,23.686674 C30.74506,32.1355155 35.4047241,37.3584357 44.7240523,37.3584357 C50.3566133,37.3584357 53.275304,36.0783082 55.4771233,34.7469756 L55.4771233,29.831286 L51.2271,29.831286 C49.8445623,31.5722594 48.666845,32.7499767 45.3385135,32.7499767 C41.0372851,32.7499767 38.6818505,30.2921319 38.3746199,24.9668015 L56.34761,24.9668015 Z M44.2120013,14.1625254 C47.2843073,14.1625254 48.7180501,16.005909 48.9740756,20.7167782 L38.4770301,20.7167782 C39.0402862,16.1083192 41.0884902,14.1625254 44.2120013,14.1625254 Z M66.3033994,37.3072306 C69.5805258,37.3072306 72.0895757,36.4367439 74.0865746,33.9788991 C74.7522409,36.1295133 76.339599,37.3584357 79.4631101,37.3584357 C81.4089039,37.3584357 82.9450569,36.9487949 83.9691589,36.3343337 L83.9691589,32.7499767 L82.5354161,32.7499767 C81.9209549,32.7499767 81.2552886,32.0843104 81.2552886,31.4698492 L81.2552886,18.1053181 C81.2552886,11.9607061 77.5685214,9.7076817 70.6046278,9.7076817 C65.3817076,9.7076817 62.002171,10.6293735 59.4931211,11.7558857 L59.4931211,17.2348314 L62.9238628,17.2348314 C64.2551954,16.0571141 65.8937586,14.8281917 69.1196799,14.8281917 C72.2943961,14.8281917 73.779344,16.1083192 73.779344,18.8221895 L73.779344,21.63847 C72.0895757,21.2288292 70.5534227,21.0240088 68.3003983,21.0240088 C62.1045812,21.0240088 57.7009426,23.5842638 57.7009426,29.2168248 C57.7009426,34.5421552 61.2852996,37.3072306 66.3033994,37.3072306 Z M69.0684748,32.903592 C66.5594249,32.903592 64.9720668,31.6234645 64.9720668,28.9095942 C64.9720668,26.1957239 66.8154504,24.9668015 69.8365513,24.9668015 C71.2702941,24.9668015 72.6016267,25.0692117 73.779344,25.2740321 L73.779344,31.0090033 C72.4992165,32.1867206 70.9630635,32.903592 69.0684748,32.903592 Z M84.9128507,37 L99.1990736,37 L99.1990736,32.7499767 L95.4611013,32.7499767 L95.4611013,17.2860365 C96.9460492,16.4667549 99.3014838,15.6474733 103.193071,15.6474733 L104.473199,15.6474733 L104.473199,10.1173225 C103.961148,9.9637072 103.397892,9.861297 102.834636,9.861297 C99.3014838,9.861297 97.2020747,11.8070908 95.4098962,14.0089101 C95.307486,10.885399 94.7442299,10.1173225 93.8737432,10.1173225 L84.7080303,10.1173225 L84.7080303,14.6233713 L86.7050292,14.6233713 C87.3194904,14.6233713 87.9851567,15.4426529 87.9851567,16.005909 L87.9851567,31.4698492 C87.9851567,32.0331053 87.3194904,32.7499767 86.7050292,32.7499767 L84.9128507,32.7499767 L84.9128507,37 Z M105.570506,37 L119.242268,37 L119.242268,32.7499767 L116.118757,32.7499767 L116.118757,16.5691651 C117.85973,16.005909 119.856729,15.5450631 122.007343,15.5450631 C124.516393,15.5450631 125.540495,16.3131396 125.540495,18.9758048 L125.540495,32.7499767 L122.468189,32.7499767 L122.468189,37 L135.73031,37 L135.73031,32.7499767 L134.296567,32.7499767 C133.682106,32.7499767 133.01644,32.0843104 133.01644,31.4698492 L133.01644,16.4155498 C133.01644,11.1926296 129.790518,9.7076817 126.052546,9.7076817 C122.007343,9.7076817 118.576601,11.2438347 116.067552,13.5992693 C115.913936,10.8341939 115.401885,10.1173225 114.531399,10.1173225 L105.365686,10.1173225 L105.365686,14.6233713 L107.362685,14.6233713 C107.977146,14.6233713 108.642812,15.4426529 108.642812,16.005909 L108.642812,31.4698492 C108.642812,32.0331053 107.977146,32.7499767 107.362685,32.7499767 L105.570506,32.7499767 L105.570506,37 Z M161.964201,24.9668015 C161.964201,24.710776 162.066611,23.8402893 162.066611,22.9185975 C162.066611,13.8040897 157.867793,9.7076817 149.828592,9.7076817 C141.738186,9.7076817 136.361651,15.0330121 136.361651,23.686674 C136.361651,32.1355155 141.021315,37.3584357 150.340643,37.3584357 C155.973204,37.3584357 158.891895,36.0783082 161.093714,34.7469756 L161.093714,29.831286 L156.843691,29.831286 C155.461153,31.5722594 154.283436,32.7499767 150.955104,32.7499767 C146.653876,32.7499767 144.298441,30.2921319 143.99121,24.9668015 L161.964201,24.9668015 Z M149.828592,14.1625254 C152.900898,14.1625254 154.334641,16.005909 154.590666,20.7167782 L144.093621,20.7167782 C144.656877,16.1083192 146.705081,14.1625254 149.828592,14.1625254 Z M163.163918,37 L177.450141,37 L177.450141,32.7499767 L173.712168,32.7499767 L173.712168,17.2860365 C175.197116,16.4667549 177.552551,15.6474733 181.444139,15.6474733 L182.724266,15.6474733 L182.724266,10.1173225 C182.212215,9.9637072 181.648959,9.861297 181.085703,9.861297 C177.552551,9.861297 175.453142,11.8070908 173.660963,14.0089101 C173.558553,10.885399 172.995297,10.1173225 172.12481,10.1173225 L162.959097,10.1173225 L162.959097,14.6233713 L164.956096,14.6233713 C165.570558,14.6233713 166.236224,15.4426529 166.236224,16.005909 L166.236224,31.4698492 C166.236224,32.0331053 165.570558,32.7499767 164.956096,32.7499767 L163.163918,32.7499767 L163.163918,37 Z M192.731261,37.3072306 C200.872871,37.3072306 204.406023,33.8764889 204.406023,28.6023636 C204.406023,23.174623 201.743358,21.3824445 195.24031,20.4095476 C190.683057,19.7438813 189.71016,18.7709844 189.71016,17.1324212 C189.71016,15.4426529 191.246313,14.3161407 194.011388,14.3161407 C196.827669,14.3161407 198.466232,15.3402427 199.336718,16.9276008 L203.484332,16.9276008 L203.484332,10.9878092 C201.333717,10.2709378 198.466232,9.8100919 194.267414,9.8100919 C187.40593,9.8100919 183.309522,12.8823979 183.309522,18.2077283 C183.309522,23.4818536 186.023392,25.4788525 191.809569,26.2981341 C196.110797,26.9125953 197.288514,27.7318769 197.288514,29.7288758 C197.288514,31.6746696 195.547541,32.903592 192.680055,32.903592 C190.324621,32.903592 187.917981,31.7258747 187.30352,29.831286 L183.002292,29.831286 L183.002292,35.8734878 C185.204111,36.5903592 187.866776,37.3072306 192.731261,37.3072306 Z M231.332701,37.4096408 C234.712237,37.4096408 236.709236,36.8463847 238.706235,35.8734878 C239.730337,35.8734878 240.139978,37 240.139978,37 L244.338796,37 L244.338796,25.9396984 C244.338796,25.2740321 245.055668,24.3523403 245.823744,24.3523403 L247.052667,24.3523403 L247.052667,19.9487017 L232.971264,19.9487017 L232.971264,24.3523403 L236.504416,24.3523403 L236.504416,31.7258747 C235.224288,32.1355155 233.995366,32.3403359 231.691137,32.3403359 C226.00737,32.3403359 222.935064,27.7318769 222.935064,18.8733946 C222.935064,9.8100919 226.980267,5.9697094 232.356803,5.9697094 C234.763443,5.9697094 236.606826,6.3793502 237.784543,6.8401961 L238.603825,12.421552 L243.929155,12.421552 L243.929155,1.15643 L238.091774,1.15643 C237.221287,1.0028147 235.224288,0.7467892 232.356803,0.7467892 C221.501322,0.7467892 214.537428,7.4546573 214.537428,19.1806252 C214.537428,30.9065931 221.040476,37.4096408 231.332701,37.4096408 Z M257.981353,37.3584357 C262.282581,37.3584357 265.252477,35.975898 267.710322,33.6716685 C267.915142,36.3343337 268.375988,37 269.246475,37 L278.156162,37 L278.156162,32.7499767 L276.415189,32.7499767 C275.800728,32.7499767 275.135061,31.9306951 275.135061,31.367439 L275.135061,10.1173225 L264.125965,10.1173225 L264.125965,14.6233713 L267.659117,14.6233713 L267.659117,30.8041829 C266.020554,31.4698492 263.97235,32.0843104 262.026556,32.0843104 C259.671121,32.0843104 258.237378,31.2650288 258.237378,28.3463381 L258.237378,10.1173225 L247.740333,10.1173225 L247.740333,14.6233713 L249.481306,14.6233713 C250.044562,14.6233713 250.761434,15.2890376 250.761434,15.9034988 L250.761434,30.7017727 C250.761434,35.9246929 254.243381,37.3584357 257.981353,37.3584357 Z M279.099854,37 L293.027641,37 L293.027641,32.7499767 L291.081847,32.7499767 C290.467386,32.7499767 289.80172,32.0843104 289.80172,31.4698492 L289.80172,12.9848081 C289.80172,10.9366041 289.392079,10.1173225 288.572798,10.1173225 L278.895034,10.1173225 L278.895034,14.6233713 L281.045648,14.6233713 C281.660109,14.6233713 282.27457,15.4426529 282.27457,16.005909 L282.27457,31.4698492 C282.27457,32.0331053 281.660109,32.7499767 281.045648,32.7499767 L279.099854,32.7499767 L279.099854,37 Z M285.961337,8.0179134 C288.214362,8.0179134 290.00654,6.27694 290.00654,4.0751207 C290.00654,1.8733014 288.214362,0.0811229 285.961337,0.0811229 C283.708313,0.0811229 281.916135,1.8733014 281.916135,4.0751207 C281.916135,6.27694 283.708313,8.0179134 285.961337,8.0179134 Z M293.920128,37 L308.052736,37 L308.052736,32.7499767 L305.953326,32.7499767 C305.39007,32.7499767 304.673199,32.0843104 304.673199,31.4698492 L304.673199,2.8974034 C304.673199,1.7708912 304.263558,1.15643 303.393071,1.15643 L293.766513,1.15643 L293.766513,5.5600686 L295.917127,5.5600686 C296.531588,5.5600686 297.197254,6.3793502 297.197254,6.9426063 L297.197254,31.4698492 C297.197254,32.0331053 296.531588,32.7499767 295.917127,32.7499767 L293.920128,32.7499767 L293.920128,37 Z M320.415165,37.4096408 C324.153137,37.4096408 326.867007,35.975898 328.607981,33.9788991 C328.761596,35.8734878 329.222442,37 329.990518,37 L339.105026,37 L339.105026,32.7499767 L337.261643,32.7499767 C336.647181,32.7499767 335.981515,31.9306951 335.981515,31.367439 L335.981515,2.8974034 C335.981515,1.8220963 335.571874,1.15643 334.701388,1.15643 L325.023624,1.15643 L325.023624,5.5600686 L328.50557,5.5600686 L328.50557,13.1896285 C326.764597,11.0902194 324.562778,9.7076817 320.824805,9.7076817 C315.601885,9.7076817 309.252453,13.7528846 309.252453,23.8914944 C309.252453,34.1837195 315.038629,37.4096408 320.415165,37.4096408 Z M322.924215,32.903592 C319.851909,32.903592 316.830808,31.0602084 316.830808,23.686674 C316.830808,16.8763957 320.005524,14.8281917 323.538676,14.8281917 C325.330854,14.8281917 327.174238,15.3914478 328.50557,16.005909 L328.50557,30.7529778 C327.020623,32.0331053 325.279649,32.903592 322.924215,32.903592 Z" id="Learners-Guild"></path>
                </g>
                <g id="Mark-B&amp;W-Dark" transform="translate(99.000000, 0.000000)">
                    <g id="Just-Mark-B&amp;W">
                        <path d="M294.464546,511.682366 L328.059996,430.628641 L410.707958,462.569191 C410.707958,462.569191 388.803579,410.473797 372.722897,371.947617 C353.215939,364.131731 337.45556,357.81302 334.245247,356.519674 C324.677399,352.666328 312.081228,347.434707 297.52684,352.981778 C282.271181,358.793342 278.932262,369.205627 273.639977,380.933096 C271.938973,384.701513 264.482214,401.733399 255.489456,422.322593 C272.293247,460.78811 294.464546,511.682366 294.464546,511.682366" id="Fill-1" fill="#909190"></path>
                        <path d="M510.821187,292.443238 C510.821187,292.443238 459.577509,271.101816 421.160523,254.958044 C401.216789,263.584394 384.944409,270.618935 381.680713,272.021475 C372.2075,276.098063 359.621035,281.358802 353.307177,295.592887 C346.690002,310.513683 351.729926,320.219845 356.323367,332.236072 C357.759879,335.98993 364.476542,352.18466 372.721926,371.94883 C411.291784,387.401039 464.520372,408.720622 464.520372,408.720622 L429.932466,328.608394 L510.821187,292.443238 Z" id="Fill-3" fill="#909190"></path>
                        <path d="M410.70723,462.568705 L464.520614,408.72135 C464.520614,408.72135 411.292027,387.39934 372.722169,371.947132 C388.802851,410.473312 410.70723,462.568705 410.70723,462.568705" id="Fill-5" fill="#616260"></path>
                        <path d="M356.690745,176.795056 C352.742764,186.3168 347.38011,198.862013 352.774309,213.472212 C358.428148,228.788535 368.808887,232.236648 380.478119,237.645407 C384.190726,239.36825 400.892603,246.441615 421.161494,254.958772 C459.168394,238.521388 510.501854,216.316118 510.501854,216.316118 L430.729342,183.744667 L463.531314,101.431568 C463.531314,101.431568 410.979731,123.513084 372.344356,139.618032 C364.382878,158.484383 357.996224,173.64298 356.690745,176.795056" id="Fill-7" fill="#909190"></path>
                        <path d="M510.821187,292.443238 L510.500883,216.31539 C510.500883,216.31539 459.167424,238.523086 421.160523,254.958044 C459.577509,271.101816 510.821187,292.443238 510.821187,292.443238" id="Fill-9" fill="#616260"></path>
                        <path d="M272.795056,130.340155 C276.847378,139.823075 282.078999,152.424099 296.296099,158.774355 C311.199909,165.435208 320.920629,160.419549 332.944136,155.855227 C336.676155,154.4357 352.718013,147.79426 372.343871,139.619245 C388.42698,101.478885 410.942847,48.1677953 410.942847,48.1677953 L329.508155,82.2388474 L293.556535,1.25791848 C293.556535,1.25791848 271.785615,51.9895962 255.481691,89.9940701 C264.217236,110.330904 271.385236,127.035208 272.795056,130.340155" id="Fill-11" fill="#909190"></path>
                        <path d="M463.530828,101.431325 L410.942847,48.1663393 C410.942847,48.1663393 388.42698,101.479856 372.343871,139.61779 C410.979245,123.512842 463.530828,101.431325 463.530828,101.431325" id="Fill-13" fill="#616260"></path>
                        <path d="M216.514123,511.682366 C216.514123,511.682366 238.680569,460.78811 255.489213,422.322593 C246.494028,401.733399 239.039697,384.701513 237.336265,380.933096 C232.048834,369.205627 228.707488,358.793342 213.451829,352.981778 C198.899867,347.434707 186.298844,352.666328 176.733422,356.519674 C173.523109,357.81302 157.76273,364.131731 138.250919,371.947617 C122.17509,410.473797 100.273137,462.569191 100.273137,462.569191 L182.9211,430.628641 L216.514123,511.682366 Z" id="Fill-15" fill="#909190"></path>
                        <path d="M154.652876,332.237043 C159.25117,320.220815 164.286241,310.514654 157.669065,295.591431 C151.355208,281.357346 138.768743,276.096607 129.297956,272.022445 C126.039113,270.617479 109.761881,263.585365 89.818146,254.959014 C51.4035867,271.102787 0.159909005,292.444209 0.159909005,292.444209 L81.0486294,328.609365 L46.4534445,408.721592 C46.4534445,408.721592 99.6868853,387.399583 138.25189,371.947374 C146.502127,352.18563 153.218791,335.9909 154.652876,332.237043" id="Fill-17" fill="#909190"></path>
                        <path d="M46.4536872,408.720379 L100.274351,462.567735 C100.274351,462.567735 122.176303,410.474768 138.252133,371.948588 C99.687128,387.400796 46.4536872,408.720379 46.4536872,408.720379" id="Fill-19" fill="#616260"></path>
                        <path d="M130.498851,237.645649 C142.172936,232.236891 152.548823,228.788777 158.202662,213.472455 C163.596861,198.862256 158.236633,186.317043 154.286226,176.795299 C152.97832,173.643223 146.594093,158.484626 138.635041,139.618275 C99.9972398,123.513327 47.4480834,101.43181 47.4480834,101.43181 L80.2476284,183.74491 L0.475116588,216.313934 C0.475116588,216.313934 51.8110028,238.52163 89.8179033,254.959014 C110.086794,246.441858 126.786245,239.368493 130.498851,237.645649" id="Fill-21" fill="#909190"></path>
                        <path d="M0.473903318,216.315147 L0.160879621,292.442995 C0.160879621,292.442995 51.4021308,271.101573 89.81669,254.957801 C51.8097896,238.522844 0.473903318,216.315147 0.473903318,216.315147" id="Fill-23" fill="#616260"></path>
                        <path d="M178.035503,155.855469 C190.05901,160.419791 199.782157,165.43545 214.683541,158.774597 C228.900641,152.421915 234.129835,139.823318 238.177304,130.340398 C239.59683,127.03545 246.755124,110.338427 255.48339,89.9943128 C239.179465,52.0286635 217.425532,1.37463507 217.425532,1.37463507 L181.471484,82.23909 L100.031939,48.1680379 C100.031939,48.1680379 122.547807,101.479128 138.635769,139.619488 C158.2592,147.794502 174.301058,154.435943 178.035503,155.855469" id="Fill-25" fill="#909190"></path>
                        <path d="M293.555807,1.25719052 L217.425532,1.37366445 C217.425532,1.37366445 239.179465,52.0301194 255.48339,89.9933422 C271.784887,51.9912948 293.555807,1.25719052 293.555807,1.25719052" id="Fill-27" fill="#616260"></path>
                        <path d="M100.033153,48.1670673 L47.4475981,101.432053 C47.4475981,101.432053 99.9967545,123.51357 138.634555,139.618518 C122.546593,101.478157 100.033153,48.1670673 100.033153,48.1670673" id="Fill-29" fill="#616260"></path>
                        <path d="M255.490427,422.322351 C238.681782,460.790294 216.515336,511.682123 216.515336,511.682123 L294.465517,511.682123 C294.465517,511.682123 272.294218,460.790294 255.490427,422.322351" id="Fill-31" fill="#616260"></path>
                    </g>
                </g>
            </g>
        </g>
    </g>
</svg>